<?xml version="1.0" encoding="UTF-8" standalone="no"?>
<!-- Created with Inkscape (http://www.inkscape.org/) -->

<svg
   width="136.46631mm"
   height="34.649632mm"
   viewBox="0 0 136.46631 34.649632"
   version="1.1"
   id="svg1"
   xml:space="preserve"
   inkscape:version="1.3 (0e150ed6c4, 2023-07-21)"
   sodipodi:docname="logos.svg"
   inkscape:export-filename="..\..\..\Users\migue\OneDrive\Escritorio\svg\truper.svg"
   inkscape:export-xdpi="96"
   inkscape:export-ydpi="96"
   xmlns:inkscape="http://www.inkscape.org/namespaces/inkscape"
   xmlns:sodipodi="http://sodipodi.sourceforge.net/DTD/sodipodi-0.dtd"
   xmlns="http://www.w3.org/2000/svg"
   xmlns:svg="http://www.w3.org/2000/svg"><sodipodi:namedview
     id="namedview1"
     pagecolor="#777777"
     bordercolor="#000000"
     borderopacity="0.25"
     inkscape:showpageshadow="2"
     inkscape:pageopacity="0.0"
     inkscape:pagecheckerboard="0"
     inkscape:deskcolor="#d1d1d1"
     inkscape:document-units="mm"
     inkscape:zoom="0.31559402"
     inkscape:cx="1335.5766"
     inkscape:cy="708.18833"
     inkscape:window-width="1366"
     inkscape:window-height="697"
     inkscape:window-x="-8"
     inkscape:window-y="-8"
     inkscape:window-maximized="1"
     inkscape:current-layer="g4"
     showguides="true"
     showgrid="false" /><defs
     id="defs1" /><g
     inkscape:label="Capa 1"
     inkscape:groupmode="layer"
     id="layer1"
     transform="translate(-325.14229,-244.54914)"><path
       style="fill:#ffffff;fill-opacity:1;stroke-width:1.71748"
       d="m 361.26843,278.09583 c -6.53204,-1.69109 -9.9588,-3.46356 -11.64735,-6.02452 l -0.84308,-1.27868 -0.001,-1.59045 -10e-4,-1.59045 0.88189,-1.44634 c 5.41475,-8.88036 33.34697,-17.05179 64.19281,-18.77928 l 8.81386,-0.4936 7.51708,0.4743 c 6.52512,0.41171 12.83044,1.22253 16.74469,2.15323 0.62481,0.14857 1.03285,0.15526 0.90675,0.0155 -0.95556,-1.06415 -13.75522,-2.86969 -23.40031,-3.30088 l -6.81623,-0.30472 -7.68917,0.51372 c -28.54821,1.90732 -55.49643,9.05999 -64.23938,17.05054 l -2.5127,2.29647 -0.82669,1.81972 c -0.45468,1.00084 -0.83041,2.53542 -0.83496,3.41017 l -0.009,1.59045 0.87127,1.42887 c 0.4792,0.78587 1.60311,2.0128 2.49757,2.72649 2.34796,1.87344 2.12085,1.95399 -2.94433,1.04421 -7.82585,-1.40561 -12.77879,-3.30628 -15.3711,-5.89858 l -1.41575,-1.41577 v -2.10121 -2.10123 l 2.61288,-2.52781 2.6129,-2.52782 3.22568,-1.68644 c 11.55012,-6.03856 32.03231,-11.02958 56.52993,-13.77496 l 6.58903,-0.73843 14.42684,-0.24458 14.42685,-0.24459 5.58248,0.52486 c 7.59322,0.71392 15.26998,2.33925 19.62335,4.15466 l 3.6194,1.50933 1.96396,2.02077 c 2.55173,2.62552 2.26033,2.76422 -1.77891,0.84677 -3.65484,-1.735 -8.83357,-3.11269 -15.14891,-4.03006 l -4.08974,-0.59408 -10.90597,0.0155 -10.90597,0.0155 -5.45298,0.80112 c -23.66369,3.47648 -41.66643,12.30928 -43.16482,21.17824 l -0.29446,1.74286 0.47783,1.77451 0.47782,1.7745 1.42506,1.45758 1.42504,1.45757 -1.53077,-0.0223 c -0.84192,-0.012 -3.37114,-0.49879 -5.6205,-1.08114 z m 93.38237,-25.93424 c 0,-0.12503 -0.10219,-0.2272 -0.2272,-0.2272 -0.12503,0 -0.22722,0.10218 -0.22722,0.2272 0,0.12503 0.10219,0.22722 0.22722,0.22722 0.12503,0 0.2272,-0.10219 0.2272,-0.22722 z m -0.90883,-0.45441 c 0,-0.12503 -0.10219,-0.2272 -0.22721,-0.2272 -0.12503,0 -0.2272,0.10219 -0.2272,0.2272 0,0.12503 0.10219,0.22721 0.2272,0.22721 0.12503,0 0.22721,-0.10219 0.22721,-0.22721 z m -0.90884,-0.45441 c 0,-0.12503 -0.10219,-0.2272 -0.2272,-0.2272 -0.12504,0 -0.22721,0.10219 -0.22721,0.2272 0,0.12503 0.10219,0.22721 0.22721,0.22721 0.12503,0 0.2272,-0.10219 0.2272,-0.22721 z m -1.0603,-0.53015 c -0.1666,-0.16659 -0.43926,-0.16659 -0.60589,0 -0.1666,0.1666 -0.0302,0.30295 0.30294,0.30295 0.33325,0 0.46958,-0.13637 0.30295,-0.30295 z m -1.66619,-0.60589 c -0.37489,-0.24229 -0.98836,-0.42927 -1.36325,-0.41553 -0.204,-0.0764 -0.37219,-0.11885 -0.52414,-0.12262 -0.26476,-0.007 -0.48025,0.0713 -0.7501,0.0575 l 1.50146,0.48069 c 1.24923,0.53681 1.96669,0.53681 1.13603,0 z m -10.75468,24.49422 c -0.79155,-0.22916 -1.98856,-1.06957 -2.66004,-1.86758 l -1.22087,-1.45092 0.17882,-2.80825 0.17881,-2.80824 1.29243,-1.69448 1.29244,-1.69446 1.87042,-0.8494 1.87041,-0.84937 2.07162,-0.0103 c 1.13939,-0.005 2.40478,0.24562 2.81196,0.55803 l 0.74035,0.56802 -0.24144,1.19411 -0.24143,1.19411 -1.4345,-0.43564 -1.43449,-0.43566 -1.22587,0.4709 c -0.67424,0.259 -1.57513,1.0039 -2.00197,1.65536 l -0.77608,1.18445 -0.0429,1.94671 -0.0429,1.94672 0.66377,0.79997 0.66377,0.79998 2.35184,-0.19503 2.35183,-0.19504 -0.45848,1.31519 -0.45848,1.31519 -1.10985,0.42197 c -1.3408,0.50976 -3.05455,0.48343 -4.98915,-0.0766 z m 10.48893,-0.14736 c -0.77097,-0.33568 -1.84453,-1.1732 -2.38567,-1.86116 l -0.98389,-1.25082 v -2.22888 -2.22891 l 0.86047,-1.68596 c 1.51552,-2.96939 4.31517,-4.63964 7.77692,-4.63964 h 1.85035 l 1.71003,0.87238 1.71,0.87237 0.54396,1.19387 c 2.99385,6.57079 -4.38961,13.87069 -11.08217,10.95675 z m 5.67382,-3.71713 c 1.79658,-2.28398 1.80146,-6.05726 0.009,-7.01652 l -0.93395,-0.49982 -1.12584,0.73767 c -1.32263,0.86662 -2.06696,2.54351 -2.14605,4.83478 l -0.0568,1.64534 0.61443,0.74036 c 0.33794,0.40717 1.08577,0.74033 1.66184,0.74033 h 1.04742 z m -81.29543,3.4608 c 0,-0.50214 6.17731,-12.18489 6.91138,-13.07104 l 0.47053,-0.568 h 1.76203 c 0.96912,0 1.76203,0.11438 1.76203,0.25426 0,0.28116 2.09356,9.75953 2.55347,11.56053 l 0.2901,1.13604 1.64551,-6.36182 1.64552,-6.3618 h 1.81767 1.81765 l 1.35805,3.97612 c 1.64491,4.81606 1.25581,4.82848 4.50938,-0.14375 l 2.68653,-4.10566 1.63042,0.13671 1.63043,0.13671 -0.13345,6.1346 -0.13344,6.13462 1.77162,-3.18092 c 0.9744,-1.74949 2.48285,-4.51007 3.35212,-6.1346 l 1.58047,-2.9537 1.85515,-0.13791 1.85513,-0.13791 0.25431,0.81947 c 0.54054,1.74178 2.54882,11.53115 2.54882,12.42427 v 0.94144 l -2.15614,-0.13843 -2.15612,-0.13843 -0.23155,-1.36325 -0.23153,-1.36324 -1.47327,-0.14221 -1.47326,-0.14221 -0.95532,1.61912 -0.95531,1.61913 h -4.09779 -4.09779 l 0.1867,-2.93202 0.18669,-2.93202 -1.84397,2.81841 -1.84398,2.81843 h -1.55854 -1.55854 l -0.91092,-2.84777 -0.91093,-2.84774 -0.7223,2.84774 -0.7223,2.84777 h -4.27104 -4.27105 l -0.38269,-1.47686 -0.38269,-1.47684 h -1.58481 -1.5848 l -0.75844,1.59045 -0.75844,1.59045 h -1.9607 -1.96071 z m 32.26348,-0.68821 c 0,-0.12503 -0.10219,-0.2272 -0.22721,-0.2272 -0.12503,0 -0.2272,0.10219 -0.2272,0.2272 0,0.12503 0.10219,0.22721 0.2272,0.22721 0.12504,0 0.22721,-0.10219 0.22721,-0.22721 z m -24.10012,-5.7938 -0.0155,-1.47684 -0.64943,1.13604 c -0.83662,1.46351 -0.83662,1.81766 0,1.81766 h 0.68163 z m 31.90185,0 -0.22033,-1.47684 -0.21678,0.68161 c -0.11919,0.3749 -0.40082,1.03949 -0.62578,1.47686 l -0.409,0.79523 h 0.84612 0.84613 z m 5.83073,6.51019 c 0,-0.75208 1.83401,-11.99462 2.10393,-12.89714 l 0.24535,-0.82035 1.66546,0.13877 1.66547,0.13877 2.27206,3.34242 2.27209,3.34241 0.3612,-2.866 c 0.43402,-3.44388 0.86406,-4.04603 2.8896,-4.04603 h 1.54908 l 0.26913,0.70135 c 0.14804,0.38574 -0.16505,3.42499 -0.69587,6.75388 -0.53077,3.3289 -0.96504,6.19518 -0.96504,6.36952 0,0.17434 -0.75677,0.25352 -1.68173,0.17594 l -1.68174,-0.14101 -2.35204,-3.28487 -2.35205,-3.2849 -0.62398,3.2849 -0.62396,3.28487 -2.15849,0.13843 -2.15847,0.13843 z"
       id="path11"
       sodipodi:nodetypes="cscccsscsscscsscsccsssscccccsscccsscssscccssccccccccsssssssssssssssssssscsccsscsccccccccscccccsscccccccccsccsscccsscccsscscsscssccsscssscccccsscccccsscccsscccccccccccccccccccccccccccccccssssssccssccccssccccsscccccsscsssscccccccs"
       inkscape:label="amanco"
       inkscape:export-filename="..\..\..\Users\migue\OneDrive\Escritorio\svg\amanco.svg"
       inkscape:export-xdpi="96"
       inkscape:export-ydpi="96" /></g></svg>
