<?xml version="1.0" encoding="UTF-8" standalone="no"?>
<!-- Created with Inkscape (http://www.inkscape.org/) -->

<svg
   width="148.91261mm"
   height="50.981976mm"
   viewBox="0 0 148.91261 50.981976"
   version="1.1"
   id="svg1"
   xml:space="preserve"
   inkscape:version="1.3 (0e150ed6c4, 2023-07-21)"
   sodipodi:docname="logos.svg"
   inkscape:export-filename="..\..\..\Users\migue\OneDrive\Escritorio\svg\truper.svg"
   inkscape:export-xdpi="96"
   inkscape:export-ydpi="96"
   xmlns:inkscape="http://www.inkscape.org/namespaces/inkscape"
   xmlns:sodipodi="http://sodipodi.sourceforge.net/DTD/sodipodi-0.dtd"
   xmlns="http://www.w3.org/2000/svg"
   xmlns:svg="http://www.w3.org/2000/svg"><sodipodi:namedview
     id="namedview1"
     pagecolor="#777777"
     bordercolor="#000000"
     borderopacity="0.25"
     inkscape:showpageshadow="2"
     inkscape:pageopacity="0.0"
     inkscape:pagecheckerboard="0"
     inkscape:deskcolor="#d1d1d1"
     inkscape:document-units="mm"
     inkscape:zoom="0.31559402"
     inkscape:cx="1335.5766"
     inkscape:cy="708.18833"
     inkscape:window-width="1366"
     inkscape:window-height="697"
     inkscape:window-x="-8"
     inkscape:window-y="-8"
     inkscape:window-maximized="1"
     inkscape:current-layer="g4"
     showguides="true"
     showgrid="false" /><defs
     id="defs1" /><g
     inkscape:label="Capa 1"
     inkscape:groupmode="layer"
     id="layer1"
     transform="translate(-825.11863,-166.44687)"><path
       style="fill:#ffffff;fill-opacity:1;stroke-width:1.8832"
       d="m 827.46064,216.11096 c -10.3924,-8.1747 16.466,-41.8653 28.4393,-35.67366 4.76366,2.46337 1.36834,13.25395 -3.87852,12.32629 -2.48102,-0.43864 -2.45598,-2.57282 0.0621,-5.30471 3.224,-3.49763 0.56821,-5.08612 -4.44556,-2.65899 -6.85,3.31602 -17.50015,19.05526 -17.5318,25.90922 -0.0146,3.30363 4.6215,3.51432 9.39817,0.427 3.49585,-2.25948 5.04307,-2.54723 5.04307,-0.93792 0,4.53311 -13.08459,9.06092 -17.08681,5.91277 z m 40.00695,0.38652 c -0.91881,-0.48113 -1.31176,-1.17206 -1.4975,-2.63313 l -0.25183,-1.98085 -0.87624,1.29342 c -2.31605,3.41871 -6.84143,2.74962 -6.84143,-1.01154 0,-1.31413 -0.21761,-1.29406 -2.17771,0.20097 -10.73041,8.18449 -14.01148,-3.08921 -3.94118,-13.5418 5.49774,-5.70643 14.18923,-7.87267 12.97621,-3.23411 -0.19523,0.74658 0.01,0.86627 1.18685,0.6935 1.9291,-0.28313 1.89328,0.99377 -0.14088,5.02345 -1.50028,2.97203 -3.55883,8.36012 -3.29485,8.62407 0.82183,0.82185 3.37483,-3.24791 6.12081,-9.75715 5.77017,-13.67798 13.01736,-22.39254 16.0773,-19.3326 1.94171,1.9417 -1.22071,9.70891 -6.36049,15.62211 -8.60266,9.89705 -11.04641,16.4162 -6.15383,16.4162 1.03591,0 1.44139,0.26796 1.54957,1.02403 0.31713,2.21685 -3.85361,3.91361 -6.3748,2.59343 z m -11.99762,-9.29231 c 1.25189,-1.75811 1.29609,-2.33999 0.2093,-2.75703 -0.72119,-0.27674 -0.66544,-0.48989 0.43739,-1.67267 1.34824,-1.44593 2.61459,-3.59768 2.11733,-3.59768 -2.37908,0 -8.12115,8.5847 -6.97859,10.43339 0.47553,0.7694 2.96579,-0.65224 4.21457,-2.40601 z m 21.87425,-14.86905 c 2.57512,-4.27799 3.1797,-5.93367 1.41349,-3.87099 -1.23093,1.43757 -4.31444,6.76101 -4.31444,7.44854 0,0.80646 1.01697,-0.44769 2.90095,-3.57755 z m 27.82527,24.44697 c -1.24984,-1.24984 6.11218,-15.44975 14.19276,-27.37502 4.00866,-5.91595 3.97188,-5.77766 1.42778,-5.37083 -2.27647,0.36402 -3.01624,-0.51935 -2.10667,-2.51563 0.95263,-2.09074 13.19173,-3.39423 17.58693,-1.87303 10.68842,3.69931 1.45244,19.7987 -12.9112,22.50564 -3.69277,0.69591 -3.73617,0.74621 -3.44232,3.98681 0.64254,7.08627 2.49208,7.51106 9.68466,2.22424 2.84146,-2.08858 2.88275,1.41471 0.0501,4.2474 -7.33281,7.33281 -13.82971,4.95627 -13.86822,-5.07296 l -0.0147,-4.12668 -0.70035,0.92454 c -0.38521,0.5085 -1.63948,3.08701 -2.78728,5.73003 -2.7294,6.28487 -5.20386,8.62193 -7.11028,6.71549 z m 19.38504,-18.93273 c 6.57081,-2.21884 12.05153,-8.56587 11.00327,-12.7425 -0.60611,-2.41494 -5.34912,-3.24691 -7.13577,-1.25166 -0.81212,0.90696 -8.32637,11.7863 -9.80814,14.20051 -0.56802,0.92544 2.95088,0.80321 5.94064,-0.20635 z M 883.91718,215.246 c -8.62589,-4.32631 5.76083,-26.15584 15.18761,-23.04471 3.98652,1.31565 4.77131,4.95591 2.17844,10.10483 -5.40098,10.72545 -11.99093,15.63577 -17.36605,12.93988 z m 7.01089,-5.24491 c 0.92636,-0.62429 2.54364,-2.36197 3.59398,-3.86157 l 1.90969,-2.72649 -1.2781,-0.1577 c -1.75078,-0.21595 -1.611,-0.95256 0.71495,-3.76726 2.18422,-2.64322 2.25847,-2.83516 1.42066,-3.67298 -1.676,-1.67598 -9.89174,7.29897 -11.10439,12.13054 -0.71154,2.83501 1.9043,3.96854 4.74321,2.05543 z m 60.3723,5.78766 c -1.26439,-0.5102 -0.51022,-1.7328 4.41263,-7.15344 l 5.03547,-5.54464 -0.33782,-2.70382 c -0.44846,-3.58941 -0.53335,-3.54899 -5.72778,2.72697 -9.93064,11.99833 -16.73283,15.17415 -21.05977,9.83246 -3.86151,-4.76709 5.82174,-21.24244 12.48506,-21.24244 6.1995,0 4.4923,6.71334 -3.76003,14.78598 -3.61377,3.53511 -3.95991,4.58925 -1.28664,3.91828 1.7618,-0.44216 6.92915,-5.4802 11.77413,-11.47945 7.63756,-9.45708 11.76475,-10.19836 11.79052,-2.11761 0.002,1.33901 0.42424,1.10364 3.77885,-2.11764 3.17324,-3.04707 4.03357,-3.45108 5.09302,-2.39164 1.21242,1.21245 0.5021,2.58328 -3.63734,7.01938 l -4.23524,4.53879 v 2.35998 c 0,3.91496 0.65813,5.0236 2.86739,4.83032 l 1.86611,-0.16328 0.16458,1.16218 c 0.33207,2.34461 -3.02865,4.55207 -5.42136,3.56097 -1.49156,-0.61782 -2.16994,-1.7277 -2.963,-4.8477 -0.68084,-2.67861 -0.88184,-2.65493 -3.19321,0.37594 -3.28864,4.31233 -5.3604,5.57249 -7.64558,4.6504 z m -8.90581,-15.54577 c 2.0213,-2.99105 2.34553,-4.19397 0.7444,-2.76176 -1.32341,1.18377 -3.15664,4.03553 -3.65304,5.68267 l -0.37539,1.24567 0.73922,-0.7474 c 0.40657,-0.41106 1.55172,-1.94971 2.54481,-3.41918 z m -65.33541,4.0857 c -0.92117,-0.37169 -0.75578,-2.53565 0.23626,-3.09082 1.21238,-0.67848 2.62876,0.20576 2.62876,1.64115 0,1.45451 -1.26579,2.09499 -2.86502,1.44967 z m 27.53974,-0.47787 c -0.95208,-0.95209 -0.83006,-2.12184 0.29526,-2.83042 1.83245,-1.15382 3.41347,1.46349 1.83658,3.04038 -0.79193,0.79193 -1.16689,0.75499 -2.13184,-0.20996 z m -4.96755,-14.01544 c -0.39152,-0.4796 -1.54295,-1.88097 -2.55868,-3.11417 -4.10521,-4.98401 -4.09948,-7.77534 0.0281,-13.70536 1.47568,-2.12012 2.95044,-4.50021 3.27721,-5.28908 0.89488,-2.16042 1.48567,-1.78913 4.27395,2.68609 4.90971,7.88011 5.29719,10.21671 2.37731,14.33539 -0.79448,1.12069 -1.98659,2.80786 -2.6491,3.74923 -2.63641,3.74607 -3.59974,0.50422 -1.01137,-3.4035 2.47101,-3.73055 1.20609,-13.14428 -1.63976,-12.20316 -3.33817,1.10392 -4.57672,8.06452 -2.22386,12.4982 1.97766,3.7267 2.0655,6.82183 0.12617,4.44636 z"
       id="path8"
       sodipodi:nodetypes="sssssssssssscssssssssssssssssssssssssscssssssssccssccssssssssssscsssssssscssssssscssscsscssssssssscssssssssssssssssssssss"
       inkscape:label="calorex"
       inkscape:export-filename="..\..\..\Users\migue\OneDrive\Escritorio\svg\calorex.svg"
       inkscape:export-xdpi="96"
       inkscape:export-ydpi="96" /></g></svg>
