<?xml version="1.0" encoding="UTF-8" standalone="no"?>
<!-- Created with Inkscape (http://www.inkscape.org/) -->

<svg
   width="108.47677mm"
   height="33.705898mm"
   viewBox="0 0 108.47677 33.705898"
   version="1.1"
   id="svg1"
   xml:space="preserve"
   inkscape:version="1.3 (0e150ed6c4, 2023-07-21)"
   sodipodi:docname="logos.svg"
   inkscape:export-filename="..\..\..\Users\migue\OneDrive\Escritorio\svg\truper.svg"
   inkscape:export-xdpi="96"
   inkscape:export-ydpi="96"
   xmlns:inkscape="http://www.inkscape.org/namespaces/inkscape"
   xmlns:sodipodi="http://sodipodi.sourceforge.net/DTD/sodipodi-0.dtd"
   xmlns="http://www.w3.org/2000/svg"
   xmlns:svg="http://www.w3.org/2000/svg"><sodipodi:namedview
     id="namedview1"
     pagecolor="#777777"
     bordercolor="#000000"
     borderopacity="0.25"
     inkscape:showpageshadow="2"
     inkscape:pageopacity="0.0"
     inkscape:pagecheckerboard="0"
     inkscape:deskcolor="#d1d1d1"
     inkscape:document-units="mm"
     inkscape:zoom="0.31559402"
     inkscape:cx="1335.5766"
     inkscape:cy="708.18833"
     inkscape:window-width="1366"
     inkscape:window-height="697"
     inkscape:window-x="-8"
     inkscape:window-y="-8"
     inkscape:window-maximized="1"
     inkscape:current-layer="g4"
     showguides="true"
     showgrid="false" /><defs
     id="defs1" /><g
     inkscape:label="Capa 1"
     inkscape:groupmode="layer"
     id="layer1"
     transform="translate(-691.97562,-178.20741)"><path
       style="fill:#ffffff;fill-opacity:1;stroke-width:1.36571"
       d="m 697.94703,211.01949 c -7.33917,-5.31646 -7.9922,-14.76749 -1.52097,-22.01258 4.24054,-4.74766 5.24731,-4.89388 7.91359,-1.14946 l 0.77788,1.09243 -2.58126,2.55579 c -3.11009,3.0794 -3.42176,3.76337 -2.88754,6.33671 0.63985,3.08216 4.415,8.07553 6.10537,8.07553 0.75577,0 0.31925,0.52704 -2.80483,3.3864 -3.47032,3.17628 -3.14109,3.06339 -5.00224,1.71518 z m 49.74909,0.39809 c 0,-0.15501 0.89434,-4.55179 1.9874,-9.7706 2.35743,-11.2555 2.28574,-10.18284 0.68054,-10.18284 h -1.30684 l 0.23151,-0.81302 c 0.12729,-0.44717 0.32923,-1.26019 0.44865,-1.80672 0.18809,-0.86068 0.39248,-0.99404 1.52701,-0.99625 l 1.30988,-0.003 0.62404,-2.58685 c 1.21354,-5.03054 3.36216,-6.80079 8.39975,-6.92057 3.23282,-0.0769 3.2455,-0.0656 2.72584,2.43765 l -0.41852,2.01605 H 762.152 c -2.57299,0 -4.67793,2.14538 -4.69757,4.78781 -10e-4,0.14905 0.98654,0.27101 2.19475,0.27101 h 2.19679 l -0.23637,1.17437 c -0.50737,2.52091 -0.4095,2.43906 -2.91684,2.43906 -2.0028,0 -2.32438,0.0906 -2.32438,0.65455 0,0.52061 -2.99996,15.34102 -3.79897,18.7677 l -0.18959,0.81302 h -2.34185 c -1.28801,0 -2.34185,-0.12687 -2.34185,-0.28182 z m -25.1134,-6.00646 c -4.8421,-2.13736 -4.48515,-11.49403 0.60912,-15.96686 3.74362,-3.28694 10.54188,-2.61859 9.68525,0.95219 l -0.4291,1.78877 -2.49769,-0.23215 c -3.61317,-0.3358 -5.31297,1.58309 -5.65785,6.38714 -0.23609,3.28874 0.0736,3.50238 3.88431,2.67905 3.3602,-0.72602 3.11052,-0.82717 3.34477,1.355 l 0.18205,1.69583 -1.32718,0.53104 c -2.9557,1.18262 -6.18835,1.5186 -7.79368,0.80999 z m 14.45375,0.18836 c -8.91958,-2.29375 -5.48564,-17.13967 4.16696,-18.01494 6.47006,-0.58668 9.80011,5.13694 6.91061,11.87785 -1.8814,4.38914 -6.95164,7.19811 -11.07757,6.13709 z m 5.48563,-5.55702 c 2.55851,-3.82828 2.28963,-7.75301 -0.59026,-8.61585 l -1.48417,-0.44467 -1.23926,1.20115 c -1.40314,1.35997 -2.35261,3.76123 -2.35261,5.94989 0,3.99643 3.48637,5.1713 5.6663,1.90948 z m 28.66139,5.08788 c -7.03563,-3.62798 -2.15166,-17.61956 6.15662,-17.63746 9.19053,-0.0198 6.94133,9.6118 -2.49387,10.67928 l -2.21738,0.25087 v 0.83316 c 0,2.77622 0.74282,3.0656 5.15734,2.00917 1.54473,-0.36967 2.86746,-0.57166 2.93941,-0.44886 0.072,0.12278 0.24245,0.89831 0.3789,1.72338 l 0.24811,1.50011 -1.99477,0.74634 c -3.27141,1.22399 -6.22665,1.34835 -8.17436,0.34401 z m 6.71284,-10.94123 c 1.19314,-0.78176 1.1735,-2.24329 -0.0376,-2.79508 -1.3694,-0.62393 -3.19544,0.37512 -4.16722,2.27999 l -0.7713,1.51189 2.05036,-0.21161 c 1.12769,-0.11636 2.44426,-0.46973 2.92571,-0.78519 z m -72.34696,9.97506 c -0.78283,-0.56707 -1.71255,-1.47247 -2.06605,-2.01199 l -0.64274,-0.98093 2.73452,-2.8622 2.73453,-2.8622 -2.9e-4,-1.72035 c -5e-4,-3.06573 -2.75947,-7.63519 -5.75319,-9.52858 l -0.87532,-0.55361 1.59802,-1.45108 c 4.482,-4.06992 4.61489,-4.16482 5.45743,-3.89742 1.38463,0.43947 4.39943,3.86592 5.72252,6.50391 l 1.25838,2.50897 v 3.79411 c 0,4.86704 -0.48163,5.91243 -4.86945,10.56931 -3.78299,4.01495 -3.42714,3.84757 -5.29836,2.49206 z m 54.7938,0.80376 c 0,-0.3672 5.51043,-26.30701 5.61756,-26.44407 0.0483,-0.0619 1.0807,-2.7e-4 2.29402,0.13701 l 2.20605,0.24958 -0.0167,0.76635 c -0.01,0.42149 -1.19972,6.29492 -2.64558,13.05205 l -2.62884,12.28569 -2.41324,0.1068 c -1.32728,0.0587 -2.41323,-0.0109 -2.41323,-0.15346 z m 20.81888,-0.2244 c 1.0189,-1.73717 3.43492,-5.07493 5.0605,-6.99115 l 1.92883,-2.27369 -1.12013,-2.63963 c -0.61606,-1.45179 -1.42565,-3.07123 -1.79907,-3.59876 -0.9721,-1.37325 -0.94891,-1.3896 1.97215,-1.3896 h 2.65111 l 1.24684,2.78773 1.24683,2.78771 1.76596,-2.78771 1.76594,-2.78773 h 2.28568 c 1.41451,0 2.28566,0.15075 2.28566,0.39551 0,0.62111 -3.08758,5.06468 -5.01238,7.21372 l -1.74509,1.94838 0.97641,2.36784 c 0.53704,1.30231 1.23794,2.85111 1.55755,3.44178 l 0.74272,1.52563 c 0.20735,0.34516 -0.36122,0.45168 -2.4107,0.45168 h -2.68206 l -0.95271,-2.12291 c -0.52398,-1.1676 -0.9527,-2.30584 -0.9527,-2.52941 0,-0.96949 -0.8324,-0.23284 -2.39887,2.12292 l -1.68194,2.5294 h -2.49772 c -1.89857,0 -2.43417,-0.1083 -2.2328,-0.45168 z"
       id="path7"
       sodipodi:nodetypes="ssscssssscsscssscssscssscsssscsccssscsssscsssssssscsssssscsssscssssscsssscccsscssscssssssccscssssscssscccccssscsccscssscsss"
       inkscape:label="coflex"
       inkscape:export-filename="..\..\..\Users\migue\OneDrive\Escritorio\svg\coflex.svg"
       inkscape:export-xdpi="96"
       inkscape:export-ydpi="96" /></g></svg>
