<?xml version="1.0" encoding="UTF-8" standalone="no"?>
<!-- Created with Inkscape (http://www.inkscape.org/) -->

<svg
   width="101.99742mm"
   height="21.5186mm"
   viewBox="0 0 101.99742 21.5186"
   version="1.1"
   id="svg1"
   xml:space="preserve"
   inkscape:version="1.3 (0e150ed6c4, 2023-07-21)"
   sodipodi:docname="logos.svg"
   inkscape:export-filename="..\..\..\Users\migue\OneDrive\Escritorio\svg\truper.svg"
   inkscape:export-xdpi="96"
   inkscape:export-ydpi="96"
   xmlns:inkscape="http://www.inkscape.org/namespaces/inkscape"
   xmlns:sodipodi="http://sodipodi.sourceforge.net/DTD/sodipodi-0.dtd"
   xmlns="http://www.w3.org/2000/svg"
   xmlns:svg="http://www.w3.org/2000/svg"><sodipodi:namedview
     id="namedview1"
     pagecolor="#777777"
     bordercolor="#000000"
     borderopacity="0.25"
     inkscape:showpageshadow="2"
     inkscape:pageopacity="0.0"
     inkscape:pagecheckerboard="0"
     inkscape:deskcolor="#d1d1d1"
     inkscape:document-units="mm"
     inkscape:zoom="0.31559402"
     inkscape:cx="996.53346"
     inkscape:cy="838.10207"
     inkscape:window-width="1366"
     inkscape:window-height="697"
     inkscape:window-x="-8"
     inkscape:window-y="-8"
     inkscape:window-maximized="1"
     inkscape:current-layer="layer1"
     showguides="true"
     showgrid="false" /><defs
     id="defs1" /><g
     inkscape:label="Capa 1"
     inkscape:groupmode="layer"
     id="layer1"
     transform="translate(-425.74453,-184.42172)"><path
       id="path5-2"
       style="fill:#ffffff;fill-opacity:1;stroke-width:1.03168"
       d="m 433.25724,184.42172 -0.44028,0.40515 -0.44028,0.40462 -3.31608,9.16895 c -1.95669,5.41003 -3.31608,9.38128 -3.31608,9.68675 0,0.71488 0.33592,1.29784 0.91209,1.58181 0.75948,0.37429 1.04448,0.31692 4.24781,-0.85576 1.65569,-0.60612 3.07124,-1.10281 3.14554,-1.10381 0.0743,-0.001 1.49868,0.50002 3.16518,1.11415 l 3.02979,1.11673 0.58911,-0.077 0.5886,-0.077 0.47852,-0.52193 0.47852,-0.52245 v -0.57206 c 0,-0.37684 -1.13501,-3.7063 -3.32589,-9.75496 l -3.32641,-9.18342 -0.42995,-0.40462 -0.43047,-0.40515 h -0.80511 z m 0.86713,0.68833 c 0.28949,0.008 0.56762,0.10261 0.74828,0.29663 0.31023,0.33317 6.77571,18.23429 6.77271,18.75337 -0.002,0.47731 -0.56516,1.01958 -1.05885,1.01958 -0.20675,0 -1.72635,-0.50836 -3.37654,-1.12913 -1.65018,-0.62076 -3.06661,-1.12651 -3.14761,-1.12551 -0.0811,0.002 -1.50153,0.51011 -3.15639,1.12913 -1.65489,0.61904 -3.1949,1.12551 -3.42253,1.12551 -0.5381,0 -1.00304,-0.47506 -1.00304,-1.02474 0,-0.23954 1.4324,-4.39644 3.18275,-9.23768 1.75037,-4.84124 3.24604,-8.98165 3.32434,-9.20099 0.14118,-0.396 0.65441,-0.62013 1.13688,-0.60617 z m -0.0687,1.3994 c -0.23083,0.0799 -4.47889,11.92813 -4.48189,12.49795 -10e-4,0.3583 0.10487,0.62659 0.33176,0.83974 0.18754,0.17618 2.52097,1.11752 5.33611,2.15232 4.59737,1.68986 5.37176,1.9494 5.37176,1.80351 0,-0.0282 -0.18499,-0.50162 -0.41082,-1.05265 l -0.41083,-1.00201 -4.03283,-1.45262 c -2.21824,-0.79877 -4.05879,-1.47755 -4.09019,-1.50895 -0.0314,-0.0314 0.49375,-1.57635 1.16685,-3.43338 l 1.2237,-3.37654 0.68627,1.77405 0.68626,1.77405 1.19217,0.40049 c 0.65567,0.22031 1.1912,0.38874 1.19063,0.37414 -0.0177,-0.32568 -3.66415,-9.8229 -3.75895,-9.7901 z m 62.44891,5.55057 v 3.10627 c 0,1.7083 0.0817,3.188 0.1819,3.28817 0.10005,0.10009 0.65284,0.18242 1.22835,0.18242 h 1.04644 v -2.11564 -2.11563 l 1.02423,1.6645 c 1.44551,2.35006 1.69835,2.60559 2.48667,2.51199 l 0.69143,-0.0822 1.10639,-1.85105 1.10588,-1.85156 0.13643,1.85156 0.13642,1.85105 1.16014,0.0842 1.16013,0.0837 v -3.29127 -3.29127 h -1.76733 -1.76734 l -1.0206,1.77405 c -0.56124,0.97584 -1.08616,1.77333 -1.16686,1.76733 -0.0806,-0.004 -0.57768,-0.77202 -1.10432,-1.70635 l -0.95757,-1.69861 -1.8402,-0.0806 z m -49.61971,0.0253 -0.58912,0.47749 -0.58859,0.478 0.0811,2.32028 0.0811,2.31975 0.9555,0.49041 0.95446,0.48989 2.63344,-0.0806 2.63343,-0.0806 0.57412,-0.51986 c 0.32694,-0.29621 0.57361,-0.85419 0.57361,-1.29656 v -0.7767 h -1.06247 c -0.70684,0 -1.11701,0.14095 -1.22473,0.42168 l -0.16175,0.4222 -1.84639,-0.0806 -1.84589,-0.0806 -0.0863,-1.20148 c -0.0556,-0.7763 0.041,-1.28183 0.27286,-1.42885 0.62795,-0.39834 3.12687,-0.27416 3.49849,0.17363 0.19516,0.23515 0.79002,0.40928 1.39785,0.40928 h 1.05885 v -0.68265 c 0,-0.37532 -0.24597,-0.9281 -0.54622,-1.22835 l -0.54571,-0.5457 h -3.10885 z m 62.17605,0 v 3.09335 l 5.1e-4,-0.001 c 0,1.91707 -0.015,3.47162 -0.015,3.47162 0,0 2.01555,-0.015 4.01732,-0.015 h 3.63957 v -0.9555 -0.95498 h -2.59312 c -1.43784,0 -2.52284,0.006 -2.52284,0.006 l 0.0233,-0.59841 c 0,0 1.22441,0.0261 2.29547,-0.009 l 2.38848,-0.0785 0.0863,-0.75086 0.0863,-0.75034 h -2.47478 -2.47479 v -0.4098 -0.40928 h 2.59313 2.59312 v -0.81907 -0.81855 h -3.82147 z m 8.61549,0 1.56166,1.5782 1.56166,1.57819 -1.50171,1.48312 c -0.82611,0.81585 -1.50224,1.57983 -1.50224,1.69757 0,0.11774 0.57881,0.21394 1.28623,0.21394 h 1.28623 l 1.17047,-1.14877 1.17047,-1.14877 1.17047,1.14877 1.17047,1.14877 h 1.28623 c 0.70745,0 1.28622,-0.0962 1.28622,-0.21394 0,-0.11772 -0.67561,-0.88172 -1.50171,-1.69757 l -1.50224,-1.48312 1.56166,-1.57819 1.56167,-1.5782 h -1.48105 -1.48105 l -1.03559,1.01079 -1.03508,1.01079 -1.03508,-1.01079 -1.03508,-1.01079 h -1.48105 z m -61.02522,0.001 -0.55655,0.55707 -0.55707,0.55656 0.0796,2.24121 0.0791,2.2412 0.9555,0.49506 0.95498,0.49506 2.97708,-0.108 2.97708,-0.10749 0.63975,-0.74414 0.63976,-0.74362 v -1.77147 -1.77147 l -0.67024,-0.66973 -0.66973,-0.67024 h -3.4246 z m 9.28109,0 v 3.09387 c 0,1.70152 0.0817,3.17508 0.1819,3.27525 h -0.002 c 0.10006,0.10008 0.65284,0.1819 1.22834,0.1819 h 1.04645 l 0.009,-2.11511 0.009,-2.11564 0.84956,0.9555 c 0.46732,0.52546 1.31628,1.47706 1.88671,2.11512 l 1.03714,1.16013 h 1.51722 1.51722 v -3.27525 -3.27577 h -1.0914 -1.09193 v 2.05621 2.05568 l -1.79317,-2.05568 -1.79317,-2.05621 h -1.75545 z m 10.64586,0 v 3.27577 3.27474 l 3.07062,-0.001 c 5.10896,-0.003 5.9371,-0.48825 5.9371,-3.48351 v -1.72599 l -0.66972,-0.66973 -0.67025,-0.67024 h -3.83387 z m 10.09965,0 v 2.42001 2.41949 l 0.55138,0.70125 c 0.30324,0.38554 0.82532,0.76032 1.16014,0.83302 v 5.2e-4 c 0.33481,0.0732 1.74106,0.10651 3.12487,0.0744 l 2.51561,-0.0584 0.69143,-0.64957 0.69143,-0.64958 v -2.54558 -2.54558 h -1.21698 -1.21749 l -0.0791,2.25206 -0.0796,2.25154 h -1.77405 -1.77457 l -0.0791,-2.25154 -0.0796,-2.25206 h -1.21698 z m -7.77937,1.63608 1.77405,0.006 c 2.28119,0.005 2.51297,0.16573 2.40605,1.66088 l -0.0858,1.19941 -2.04742,0.0786 -2.0469,0.0786 v -1.51154 z m -18.83503,0.002 c 0.9311,0 1.80946,0.14444 1.99264,0.32763 0.42316,0.42312 0.42316,1.92452 0,2.34766 h 0.002 c -0.31979,0.31966 -3.27262,0.42888 -3.97185,0.14676 -0.43684,-0.17576 -0.44724,-2.06217 -0.015,-2.49442 0.18314,-0.1831 1.06152,-0.32763 1.99264,-0.32763 z m -21.87515,3.94756 c -0.27388,0 -3.52613,1.43864 -3.57343,1.58078 -0.0238,0.0716 0.43812,0.30438 1.02681,0.51677 0.58871,0.21238 1.11559,0.39032 1.17099,0.39532 0.0975,0.009 1.89353,-0.72734 2.02624,-0.83096 0.12754,-0.0996 -0.48407,-1.66191 -0.65061,-1.66191 z m -7.34271,3.14141 -1.22266,0.5209 -1.22266,0.52141 -0.28164,0.81546 c -0.15489,0.44858 -0.32864,0.93162 -0.38654,1.07332 -0.15687,0.38401 -0.007,0.34579 2.76211,-0.7059 1.39555,-0.52996 2.62963,-0.99535 2.74246,-1.03405 0.31041,-0.1066 0.11924,-0.22371 -1.19062,-0.72864 z"
       inkscape:label="condumex"
       inkscape:export-filename="..\..\..\Users\migue\OneDrive\Escritorio\svg\condumex.svg"
       inkscape:export-xdpi="96"
       inkscape:export-ydpi="96" /></g></svg>
