<?xml version="1.0" encoding="UTF-8" standalone="no"?>
<!-- Created with Inkscape (http://www.inkscape.org/) -->

<svg
   width="273.29532mm"
   height="45.758659mm"
   viewBox="0 0 273.29532 45.758659"
   version="1.1"
   id="svg1"
   xml:space="preserve"
   inkscape:version="1.3 (0e150ed6c4, 2023-07-21)"
   sodipodi:docname="logos.svg"
   inkscape:export-filename="..\..\..\Users\migue\OneDrive\Escritorio\svg\truper.svg"
   inkscape:export-xdpi="96"
   inkscape:export-ydpi="96"
   xmlns:inkscape="http://www.inkscape.org/namespaces/inkscape"
   xmlns:sodipodi="http://sodipodi.sourceforge.net/DTD/sodipodi-0.dtd"
   xmlns="http://www.w3.org/2000/svg"
   xmlns:svg="http://www.w3.org/2000/svg"><sodipodi:namedview
     id="namedview1"
     pagecolor="#777777"
     bordercolor="#000000"
     borderopacity="0.25"
     inkscape:showpageshadow="2"
     inkscape:pageopacity="0.0"
     inkscape:pagecheckerboard="0"
     inkscape:deskcolor="#d1d1d1"
     inkscape:document-units="mm"
     inkscape:zoom="0.31559402"
     inkscape:cx="1335.5766"
     inkscape:cy="708.18833"
     inkscape:window-width="1366"
     inkscape:window-height="697"
     inkscape:window-x="-8"
     inkscape:window-y="-8"
     inkscape:window-maximized="1"
     inkscape:current-layer="g4"
     showguides="true"
     showgrid="false" /><defs
     id="defs1" /><g
     inkscape:label="Capa 1"
     inkscape:groupmode="layer"
     id="layer1"
     transform="translate(-998.88786,-176.4362)"><path
       style="fill:#ffffff;fill-opacity:1;stroke-width:1.61391"
       d="m 1233.2132,215.46456 -6.7203,-6.73031 v -9.39443 -9.39441 l 6.7301,-6.72045 6.7304,-6.72043 h 9.3945 9.3944 l 6.7204,6.73029 6.7205,6.73031 v 9.39441 9.39443 l -6.7303,6.72045 -6.7303,6.72043 h -9.3944 -9.3945 z m 28.8224,-3.40509 5.4505,-5.43824 v -7.25945 -7.25942 l -5.4384,-5.45035 -5.4382,-5.45036 h -7.4727 -7.4727 l -5.2371,5.22451 -5.237,5.22448 v 7.47319 7.47319 l 5.4382,5.45035 5.4382,5.45035 h 7.2595 7.2594 z m -28.7106,-5.01561 c 0,-0.56842 2.7111,-12.58667 3.2529,-14.41961 l 0.2208,-0.74727 h 6.7558 6.7556 l -0.6454,2.56207 -0.6454,2.56208 h -3.5771 -3.5769 v 0.64051 0.64052 h 3.4624 3.4624 l -0.2805,1.11734 c -0.1549,0.61454 -0.3912,1.67139 -0.5267,2.34857 l -0.2462,1.23122 h -3.5456 -3.5455 l -0.5257,2.34857 -0.5256,2.34857 h -3.1346 -3.1347 z m 18.6707,-1.60924 c -0.7839,-1.23301 -1.5734,-2.48793 -1.7545,-2.78872 -0.1811,-0.3008 0,-1.97424 0.4185,-3.71874 l 0.7477,-3.17184 2.2461,-1.93917 2.2462,-1.93917 h 4.7657 4.7657 l -0.3024,2.24181 c -0.4048,3.00101 -0.241,2.88234 -3.978,2.88234 h -3.2959 l -0.9492,0.66471 -0.9489,0.66474 v 1.84506 c 0,3.18142 2.4228,3.94634 3.1229,0.98596 l 0.378,-1.5984 h 2.3062 2.3061 l -0.016,0.96077 c 0,0.52843 -0.1858,1.7294 -0.4003,2.66882 l -0.39,1.70806 -1.5925,1.38778 -1.5924,1.3878 h -3.3319 -3.3318 z m -219.0041,12.28329 c -0.2101,-0.21023 -0.016,-1.30912 1.1472,-6.51863 l 0.2146,-0.96077 h 2.7676 2.7673 v 0.85403 0.85401 h -2.135 -2.135 v 0.64053 0.64051 h 1.708 1.7081 v 0.64052 0.64051 h -1.8758 -1.876 l -0.2592,0.67546 c -0.3953,1.02996 -0.3909,1.0326 1.6938,1.0326 h 1.9528 l -0.142,0.74727 -0.1421,0.74728 -2.5753,0.12475 c -1.4163,0.0686 -2.6847,0.0161 -2.8182,-0.11814 z m 6.8328,5.6e-4 c -0.2106,-0.21071 -0.018,-1.30913 1.1467,-6.51919 0.1967,-0.88071 1.9228,-1.46381 1.8959,-0.64051 -0.016,0.40601 -0.8017,3.92046 -1.1017,4.91064 l -0.2264,0.74727 h 1.7682 1.768 l -0.142,0.74727 -0.142,0.74728 -2.3614,0.1254 c -1.2987,0.0689 -2.471,0.0161 -2.6048,-0.11814 z m 9.5532,-0.45848 c -1.0208,-0.71507 -1.3002,-2.32434 -0.4033,-2.32434 0.3,0 0.8852,0.39671 1.3005,0.88159 0.8473,0.98958 2.1334,0.95227 2.3298,-0.0676 l 0.1291,-0.67072 -1.7256,-0.67783 -1.7255,-0.6778 v -1.30038 -1.30037 l 0.8259,-0.44203 c 1.8633,-0.99717 4.7252,-0.22127 4.7252,1.28104 0,1.01924 -0.7336,1.08022 -1.7652,0.1467 -0.8093,-0.73244 -2.2608,-0.49705 -1.9876,0.32235 0.089,0.26598 0.8252,0.69824 1.6367,0.96054 l 1.4756,0.47694 0.1307,1.34678 0.1307,1.34677 -0.973,0.68153 c -1.2337,0.86409 -2.8847,0.87085 -4.104,0.0168 z m 5.811,0.45027 c -0.2183,-0.21846 0.5881,-4.81833 1.1792,-6.72448 0.2204,-0.71093 1.909,-1.09907 1.8577,-0.42701 -0.016,0.17614 -0.3636,1.85749 -0.778,3.73635 l -0.7537,3.41611 -0.6306,0.12152 c -0.3468,0.0668 -0.7403,0.0113 -0.8746,-0.12249 z m 3.8431,-0.3193 c -0.3643,-0.29357 -0.7821,-0.87732 -0.9283,-1.29721 -0.4132,-1.18575 0.8802,-1.40133 1.7752,-0.29591 l 0.7729,0.95434 0.9343,-0.29652 c 1.3643,-0.433 1.1501,-1.49821 -0.3621,-1.80064 -3.4129,-0.6826 -2.9144,-4.41651 0.5897,-4.41651 1.5122,0 3.1439,1.30054 2.6449,2.10814 -0.4167,0.67424 -1.3832,0.54946 -1.6772,-0.21654 -0.1517,-0.3951 -0.639,-0.61433 -1.1865,-0.53376 -1.5529,0.22845 -1.3141,0.96445 0.6019,1.85438 l 1.8181,0.84439 0.1323,0.93452 c 0.2939,2.06446 -3.334,3.59708 -5.1159,2.16132 z m 7.479,-1.06753 c 0.142,-0.88071 0.382,-2.2258 0.535,-2.98908 l 0.2782,-1.3878 h -1.1665 -1.1667 l 0.2592,-0.67544 c 0.142,-0.37148 0.2592,-0.7558 0.2592,-0.85403 0,-0.0983 1.3452,-0.17857 2.9891,-0.17857 h 2.9891 v 0.85403 0.85401 h -1.2325 -1.2326 l -0.2984,1.9893 c -0.4196,2.79903 -0.9459,3.98888 -1.7641,3.98888 h -0.7056 z m 4.5496,0.72482 c 0,-0.48207 0.3037,-2.21147 0.6747,-3.84311 l 0.6748,-2.96663 h 2.7414 2.7414 v 0.85403 0.85401 h -2.1352 -2.1351 v 0.64053 0.64051 h 1.7082 1.708 v 0.64052 0.64051 h -1.8718 -1.8717 l -0.2233,0.85403 -0.2234,0.85403 h 2.0552 2.0549 l -0.2232,0.85402 -0.2233,0.85403 h -2.7257 -2.7259 z m 6.8323,0.0313 c 0,-0.4993 0.306,-2.25382 0.6802,-3.89895 l 0.6803,-2.99115 1.1346,0.13121 1.1344,0.13121 0.1178,1.28104 c 0.065,0.70456 0.2266,1.76143 0.3604,2.34857 l 0.2434,1.06753 1.2477,-2.45533 1.2477,-2.45531 h 1.303 1.303 l -0.2318,0.74727 c -0.1275,0.41099 -0.5034,2.05516 -0.8357,3.65367 -0.6719,3.23341 -0.8148,3.49575 -1.7154,3.15016 l -0.627,-0.24061 0.5816,-2.20487 c 0.6669,-2.52799 0.4631,-2.45888 -1.0588,0.35911 -0.5965,1.10439 -1.372,2.00799 -1.7234,2.00799 h -0.6387 l -0.4545,-2.56208 -0.4545,-2.56207 -0.3996,2.55696 -0.3996,2.55694 -0.7472,0.14315 -0.7473,0.14315 z m 8.6156,0.29956 c 0.076,-0.30009 1.0028,-2.02715 2.0595,-3.83789 l 1.9217,-3.29225 0.8982,-0.005 0.8981,-0.005 0.4897,2.96458 c 0.2692,1.63053 0.4896,3.35992 0.4896,3.84311 0,1.14089 -1.2872,1.1608 -1.5844,0.0245 l -0.2233,-0.85401 h -1.342 -1.3421 l -0.5332,0.85401 c -0.5857,0.93776 -1.9527,1.1812 -1.7318,0.30842 z m 4.6066,-3.83127 -0.016,-1.3878 -0.6104,1.06754 c -0.7861,1.37525 -0.7861,1.70806 0,1.70806 h 0.6406 z m 5.9419,4.19196 c -0.2345,-0.2422 0.5407,-4.76199 1.1583,-6.75403 l 0.2316,-0.74727 h 1.7074 c 2.1452,0 3.2833,0.59864 3.8194,2.00902 l 0.4195,1.10308 -0.4559,1.38139 c -0.7529,2.28145 -5.5523,4.37955 -6.8803,3.00781 z m 4.5275,-2.21722 c 0.4214,-0.42132 0.6432,-1.21838 0.5642,-2.02831 l -0.1291,-1.33423 -1.1349,-0.13137 -1.1349,-0.13137 -0.2847,1.41236 c -0.1565,0.77679 -0.3794,1.74862 -0.4951,2.15963 l -0.2105,0.74727 h 1.0659 c 0.5861,0 1.3781,-0.31234 1.7599,-0.69409 z m 2.8006,1.88788 c 0.016,-0.3043 0.3523,-1.99444 0.7615,-3.75586 l 0.744,-3.2026 2.9218,-0.1275 2.9216,-0.1275 -0.2671,0.69618 c -0.1468,0.38289 -0.2672,0.77653 -0.2672,0.87475 0,0.0983 -0.8441,0.17858 -1.8759,0.17858 h -1.8758 l -0.2458,0.64052 -0.2458,0.64051 h 1.9438 1.9438 l -0.1756,0.53377 c -0.097,0.29357 -1.0236,0.62984 -2.06,0.74727 l -1.8846,0.21351 -0.142,0.74728 -0.142,0.74727 h 1.9841 1.9842 l -0.1421,0.74727 -0.142,0.74727 -2.8779,0.12621 -2.8779,0.12621 z m 11.1492,-0.23301 c -1.5106,-1.27681 -1.4063,-4.1995 0.2074,-5.81319 l 1.1257,-1.12576 h 1.5836 c 1.6789,0 2.997,1.00079 2.997,2.27544 0,1.01371 -1.2198,0.88377 -2.1181,-0.22562 l -0.7606,-0.93928 -1.1469,0.7515 -1.147,0.75148 0.1307,1.57558 0.1308,1.57555 1.1767,0.13541 1.1767,0.13541 0.2567,-0.66913 c 0.2844,-0.74105 1.8735,-0.92995 1.8735,-0.22268 0,1.95423 -3.8198,3.20418 -5.4867,1.79539 z m 5.4881,0.42701 c 8e-4,-0.17615 0.9235,-1.85751 2.0506,-3.73636 l 2.0494,-3.4161 0.8958,-0.13089 0.8958,-0.13089 0.5011,3.11996 c 0.2756,1.71596 0.535,3.40122 0.5765,3.74498 0.042,0.34378 -0.2747,0.69676 -0.7024,0.78441 l -0.7776,0.15929 -0.233,-0.89116 -0.2331,-0.89115 h -1.1649 c -0.6409,0 -1.5129,0.3843 -1.938,0.85401 -0.7595,0.83925 -1.9228,1.16262 -1.9202,0.53377 z m 4.955,-3.34427 c -0.142,-0.37149 -0.266,-0.99599 -0.2744,-1.38779 l -0.016,-0.71236 -0.6102,1.06754 c -0.8291,1.45038 -0.79,1.70806 0.2592,1.70806 h 0.8997 z m 2.7299,3.14053 c 0,-0.28822 0.3209,-2.01761 0.7132,-3.84312 l 0.7132,-3.3191 h 0.8373 0.8371 l -0.2693,1.49454 c -0.1485,0.82199 -0.3906,2.16708 -0.5388,2.98908 l -0.2695,1.49455 h 1.724 1.724 l -0.2234,0.85402 -0.2234,0.85403 h -2.5122 -2.5122 z m 5.9781,-0.32117 c 0,-0.4993 0.3037,-2.24278 0.6748,-3.87442 l 0.6747,-2.96663 h 0.8199 c 0.9864,0 0.9882,0.19334 0.04,4.26716 l -0.7449,3.19965 -0.7322,0.14105 -0.7324,0.14106 z m 3.144,-0.80629 c 0.1566,-0.98142 0.4905,-2.74072 0.7411,-3.90957 l 0.4558,-2.12519 h 1.8286 1.8287 l 1.1722,0.92205 1.1721,0.92207 -0.2286,1.70518 c -0.134,0.99607 -0.6553,2.13164 -1.2544,2.73077 l -1.0256,1.02561 -2.4875,0.25674 -2.4877,0.25674 z m 4.5422,-0.91062 c 1.4493,-1.44927 0.9798,-3.4161 -0.8153,-3.4161 h -1.1511 l -0.4373,2.13507 -0.4374,2.13506 h 0.9935 c 0.5465,0 1.378,-0.38431 1.8476,-0.85403 z m 2.1351,2.2087 c 0,-0.19436 0.9128,-1.87573 2.0283,-3.73637 l 2.0284,-3.38297 0.9181,-0.13089 0.9182,-0.13089 0.5011,3.11996 c 0.2756,1.71596 0.535,3.40122 0.5763,3.74498 0.042,0.34378 -0.2745,0.69676 -0.7022,0.78441 l -0.7776,0.15929 -0.233,-0.89116 -0.2331,-0.89115 h -1.1651 c -0.6407,0 -1.5127,0.3843 -1.9378,0.85401 -0.7779,0.85952 -1.9216,1.15749 -1.9216,0.50065 z m 4.6821,-4.0235 -0.016,-1.3878 -0.6102,1.06754 c -0.7863,1.37525 -0.7863,1.70806 0,1.70806 h 0.6404 z m 3.0041,3.85288 c 0,-0.28822 0.3255,-2.03833 0.7232,-3.88914 l 0.7232,-3.36514 2.3298,0.19321 2.33,0.19322 0.5765,0.78846 c 1.3639,1.86524 0.207,5.34808 -2.0363,6.13008 -1.8466,0.64375 -4.6464,0.6132 -4.6464,-0.0507 z m 4.9479,-2.24846 c 0.437,-0.667 0.5971,-1.46419 0.4288,-2.13507 l -0.2687,-1.07065 h -1.0342 c -1.2464,0 -1.3997,0.21684 -1.7642,2.49605 l -0.2837,1.77408 h 1.1123 1.1123 z m 5.3138,2.4522 c 0,-0.17615 0.3549,-1.85751 0.7722,-3.73636 l 0.759,-3.4161 1.1251,-0.13283 1.125,-0.13282 0.2294,1.41381 c 0.1259,0.7776 0.2811,1.89421 0.3447,2.48135 l 0.1162,1.06753 1.4188,-2.45533 1.4189,-2.45531 h 1.0362 1.0363 l -0.042,0.96077 c -0.023,0.52843 -0.3593,2.20831 -0.7472,3.73305 l -0.7055,2.77227 -0.79,0.1496 -0.7898,0.14961 0.2942,-1.4273 c 0.688,-3.33662 0.623,-3.45189 -0.6246,-1.10704 -1.8466,3.47131 -2.9286,3.12753 -3.0236,-0.96079 l -0.034,-1.49455 -0.3699,0.85403 c -0.2036,0.46972 -0.4876,1.57461 -0.6311,2.45532 l -0.261,1.6013 h -0.8345 c -0.4592,0 -0.8287,-0.14412 -0.8215,-0.32026 z m 10.9824,0.026 c -1.0932,-0.28576 -1.3523,-1.9801 -0.7419,-4.85589 l 0.5381,-2.53604 h 0.8491 0.849 l -0.2782,1.3878 c -0.1533,0.76328 -0.3938,2.10837 -0.535,2.98908 l -0.2566,1.6013 h 1.319 1.3192 l 0.4084,-1.6013 c 0.2246,-0.88071 0.5356,-2.2258 0.6909,-2.98908 l 0.2826,-1.3878 h 0.82 c 0.9911,0 1.0011,0.22693 0.1582,3.56797 -0.9163,3.63237 -2.3331,4.63148 -5.4228,3.82396 z m 6.2434,-1.38049 c 0.155,-0.96858 0.4868,-2.71739 0.7374,-3.88625 l 0.4558,-2.12519 h 0.8403 0.8406 l 0.6354,1.6013 c 0.3494,0.88071 0.7942,1.98561 0.9882,2.45532 l 0.3526,0.85403 0.5148,-2.45533 0.515,-2.45532 h 0.8318 0.832 l -0.2269,0.96078 c -0.1243,0.52842 -0.4734,2.20979 -0.7747,3.73636 l -0.5477,2.77558 h -0.7883 c -0.8597,0 -1.1696,-0.41321 -2.2423,-2.9891 l -0.7114,-1.70804 -0.4668,2.34434 -0.4667,2.34433 -0.8004,0.15413 -0.8003,0.15412 z m 7.465,1.4786 c -0.2381,-0.24564 -0.018,-1.51226 1.1386,-6.52926 l 0.2213,-0.96078 h 1.9328 1.9328 l 1.0482,1.04812 c 1.4388,1.43888 1.0657,4.17635 -0.7779,5.70514 -0.7422,0.61554 -5.0531,1.19347 -5.4958,0.73678 z m 4.5388,-2.20595 c 0.4214,-0.42133 0.6431,-1.21839 0.5642,-2.02831 l -0.1291,-1.33423 -1.1349,-0.13137 -1.1349,-0.13137 -0.2849,1.41236 c -0.1565,0.77678 -0.3792,1.74861 -0.495,2.15963 l -0.2104,0.74727 h 1.0658 c 0.5862,0 1.3781,-0.31234 1.7598,-0.69409 z m 3.0333,0.86119 c 0.1598,-0.84751 0.5079,-2.52887 0.7752,-3.73635 l 0.4859,-2.19543 0.9051,-0.13024 0.9052,-0.13024 -0.5916,2.90585 c -0.9839,4.83189 -0.9821,4.8274 -1.9036,4.8274 h -0.8652 z m 2.3118,1.16374 c 0,-0.20745 0.91,-1.93684 2.0225,-3.84311 l 2.0226,-3.46591 h 0.9039 0.9039 l 0.4897,2.96458 c 0.2692,1.63053 0.4895,3.35993 0.4895,3.84312 0,1.14088 -1.2871,1.1608 -1.5842,0.0245 l -0.2234,-0.85402 h -1.3421 -1.342 l -0.5334,0.85402 c -0.5329,0.8534 -1.807,1.18959 -1.807,0.47683 z m 4.6819,-3.99967 -0.016,-1.3878 -0.6103,1.06753 c -0.7861,1.37526 -0.7861,1.70806 0,1.70806 h 0.6406 z m 3.0043,3.59654 c 0,-0.45262 0.309,-2.19162 0.6869,-3.86442 l 0.6868,-3.04147 h 0.8076 c 0.9503,0 0.9655,0.28056 0.1905,3.52285 l -0.5867,2.45533 h 1.7008 1.7009 l -0.1421,0.74727 -0.142,0.74727 -2.4512,0.12798 -2.4512,0.12815 z m -159.8948,-14.61847 c -1.8866,-0.47294 -2.9849,-1.30899 -4.1033,-3.12357 l -0.7571,-1.22836 -0.3693,1.86887 -0.3692,1.86887 -8.3644,0.11556 -8.3644,0.11556 1.1802,-5.02624 c 0.6492,-2.76442 1.7984,-7.66837 2.554,-10.89765 l 1.3738,-5.87142 h 4.6493 c 2.5571,0 4.6494,0.0812 4.6494,0.18039 0,0.0993 -0.7687,3.38077 -1.7082,7.29231 -0.9394,3.91156 -1.708,7.19312 -1.708,7.29232 0,0.0993 1.4472,0.1804 3.2161,0.1804 h 3.2158 l 0.1469,-0.53376 c 0.081,-0.29357 0.378,-1.77299 0.6615,-3.28762 1.6532,-8.83338 5.1473,-11.74478 14.1112,-11.75756 l 4.9106,-0.006 2.029,0.78286 c 1.1161,0.43057 2.317,1.19392 2.6688,1.69631 l 0.6399,0.91345 v -1.37604 -1.37607 h 4.6971 4.6971 l 0.016,3.94987 0.016,3.94988 1.8045,-3.94789 1.8047,-3.94787 3.7213,-0.002 3.7215,-0.002 0.1211,4.29828 0.121,4.2983 1.708,-4.29452 1.708,-4.29451 4.3677,-0.003 4.3677,-0.003 -0.423,0.96077 c -0.2329,0.52844 -2.4028,5.38036 -4.8222,10.78207 l -4.399,9.82127 -4.7765,0.12072 -4.7765,0.12072 -0.04,-4.60437 -0.04,-4.60438 -2.1891,4.5904 -2.1891,4.59038 h -4.5883 -4.5885 l -0.1211,-4.8039 -0.121,-4.80388 -1.0387,2.87972 c -1.3505,3.74387 -2.9143,5.60543 -5.4704,6.51291 l -2.0311,0.72106 -4.9106,0.15881 c -2.7009,0.0873 -5.6696,-0.0315 -6.5973,-0.26403 z m 9.4975,-6.49776 c 1.174,-1.24953 2.224,-4.23158 2.224,-6.31574 v -1.63016 l -0.9491,-0.66473 c -2.8541,-1.9991 -5.625,0.42129 -6.5154,5.69124 l -0.3016,1.78537 0.6903,1.05347 0.6902,1.0535 h 1.6238 1.6239 z m 46.4198,6.55454 c -1.7612,-0.42502 -2.804,-1.03509 -4.0549,-2.37241 l -1.066,-1.13935 -0.1533,-3.37471 c -0.5691,-12.53375 4.4947,-18.67056 15.7359,-19.07027 l 5.3376,-0.1898 3.1568,0.66441 c 3.9175,0.82453 3.6578,0.36176 2.5904,4.61768 l -0.9062,3.61329 -2.4204,-0.39523 c -1.3313,-0.21738 -3.9383,-0.29812 -5.7933,-0.17944 l -3.3727,0.21582 -1.0817,0.80751 c -1.645,1.22822 -2.8001,3.84339 -2.9859,6.75991 l -0.1657,2.60205 0.7387,0.73869 c 0.4064,0.40628 1.1357,0.68042 1.621,0.60921 l 0.8823,-0.12943 0.3717,-1.49454 c 0.2043,-0.822 0.5594,-2.21514 0.7889,-3.09585 l 0.4173,-1.6013 h 4.8942 c 2.6918,0 4.8943,0.12072 4.8943,0.26825 0,0.72586 -2.7551,10.68446 -3.072,11.10399 -0.8503,1.12564 -12.8441,1.88937 -16.3571,1.04157 z m 23.0731,-0.23021 -2.1209,-0.56914 -1.1886,-1.33034 c -1.5641,-1.75043 -1.529,-2.21851 0.8775,-11.77866 l 2.0422,-8.11323 4.5646,-0.1212 4.5645,-0.1212 v 0.46493 c 0,0.25572 -0.7981,3.61773 -1.7737,7.47114 l -1.7735,7.00619 0.5448,0.65655 c 1.9941,2.40273 3.0074,0.83114 5.3214,-8.25301 l 1.8093,-7.10341 4.5256,-0.12088 4.5255,-0.12088 -2.2483,8.66115 c -2.5166,9.694 -3.0506,10.98556 -5.0493,12.21253 -2.7872,1.71092 -10.3359,2.30955 -14.6211,1.15949 z m -124.9229,-0.53436 c -0.003,-0.18337 1.2931,-5.95313 2.8823,-12.82169 l 2.8896,-12.48828 11.238,-0.002 11.2378,-0.002 -0.2169,0.74727 c -0.1195,0.411 -0.4075,1.51589 -0.6406,2.45531 -0.233,0.93943 -0.6347,2.51933 -0.8926,3.51089 l -0.469,1.80285 -5.828,0.11878 -5.828,0.11878 -0.3136,1.17428 -0.3134,1.17428 h 5.7278 5.7277 v 0.53377 c 0,0.29357 -0.1812,1.20631 -0.3998,2.0283 -0.2185,0.82201 -0.6076,2.30582 -0.8648,3.29739 l -0.4676,1.80285 -5.8367,0.11878 -5.8365,0.11862 -0.6836,3.2026 -0.6835,3.20259 -5.2095,0.11991 c -2.8652,0.066 -5.21272,-0.0302 -5.21671,-0.2135 z m 146.0327,-10.47494 5.5301,-10.78207 7.0626,-0.117 7.0628,-0.11701 0.016,8.2303 c 0.016,9.30358 0.1683,9.37466 2.0994,0.97112 0.7556,-3.28801 1.5576,-6.69877 1.7822,-7.57948 l 0.4083,-1.6013 h 9.5676 9.5675 l 1.1178,0.96145 1.1177,0.96144 0.2367,1.76435 c 0.3326,2.47994 -0.5271,4.68604 -2.6553,6.81436 l -1.8291,1.82894 -1.5019,0.28177 -1.5019,0.28178 1.998,3.79259 c 2.5335,4.80878 2.0476,5.43597 4.9872,-6.43837 l 2.537,-10.24831 8.3392,0.002 8.3394,0.002 1.4135,0.86177 c 0.7964,0.48563 1.7042,1.55666 2.0795,2.45374 l 0.6659,1.59194 -0.241,2.58789 c -0.5742,6.1656 -3.1752,11.05756 -6.8983,12.97475 l -2.1184,1.09084 -13.5152,0.12363 -13.5151,0.12362 -1.1819,-2.78098 c -1.3881,-3.26616 -1.6157,-3.24938 -2.3419,0.1728 l -0.5463,2.57458 h -8.4819 -8.4821 v -1.49456 -1.49454 h -3.1234 -3.1235 l -0.7127,1.49454 -0.7127,1.49456 h -4.4865 -4.4863 z m 57.4312,3.36296 c 1.0269,-1.02691 1.7236,-3.85893 1.441,-5.85819 l -0.1452,-1.02764 -2.1843,-0.12701 -2.1842,-0.12701 -0.9116,3.63448 c -1.1804,4.70621 -1.223,4.5194 1.0294,4.5194 h 1.941 z m -46.316,-4.39491 c 0,-2.03542 -0.1275,-3.57285 -0.2842,-3.41649 -0.2623,0.26216 -3.132,6.65331 -3.132,6.97502 0,0.0783 0.7687,0.14219 1.7082,0.14219 h 1.708 z m 24.5226,-0.81336 c 1.7046,-1.70448 0.6252,-3.1721 -2.3329,-3.1721 h -1.653 l -0.4447,1.6013 c -0.6327,2.27848 -0.6598,2.24182 1.655,2.24182 h 2.1047 z m 37.6077,-3.68235 c -2.303,-1.30597 -1.9013,-4.21268 0.6675,-4.8303 l 1.0946,-0.26315 0.987,0.79935 c 2.4556,1.98832 -0.016,5.84523 -2.7491,4.2941 z m 2.4217,-0.62345 c 0.9583,-0.8673 1.0096,-2.41957 0.1097,-3.31942 -0.8996,-0.89962 -1.717,-0.84512 -2.7451,0.18301 -1.9728,1.97283 0.573,5.00276 2.6352,3.13641 z m -2.1586,-1.53511 -0.05,-1.6013 h 1.0371 1.0373 l -0.076,1.49681 -0.076,1.49683 -0.4742,-0.6428 c -0.6183,-0.83831 -0.9136,-0.81155 -1.1529,0.10442 -0.1082,0.411 -0.2178,0.0266 -0.2449,-0.85403 z m 1.6584,-0.74727 c 0,-0.23488 -0.2882,-0.42703 -0.6405,-0.42703 -0.3523,0 -0.6404,0.19215 -0.6404,0.42703 0,0.23485 0.2881,0.427 0.6404,0.427 0.3523,0 0.6405,-0.19215 0.6405,-0.427 z"
       id="path9"
       inkscape:label="fg"
       inkscape:export-filename="..\..\..\Users\migue\OneDrive\Escritorio\svg\flowguard.svg"
       inkscape:export-xdpi="96"
       inkscape:export-ydpi="96" /></g></svg>
