<?xml version="1.0" encoding="UTF-8" standalone="no"?>
<!-- Created with Inkscape (http://www.inkscape.org/) -->

<svg
   width="34.810608mm"
   height="34.533035mm"
   viewBox="0 0 34.810608 34.533035"
   version="1.1"
   id="svg1"
   xml:space="preserve"
   inkscape:version="1.3 (0e150ed6c4, 2023-07-21)"
   sodipodi:docname="logos.svg"
   inkscape:export-filename="..\..\..\Users\migue\OneDrive\Escritorio\svg\truper.svg"
   inkscape:export-xdpi="96"
   inkscape:export-ydpi="96"
   xmlns:inkscape="http://www.inkscape.org/namespaces/inkscape"
   xmlns:sodipodi="http://sodipodi.sourceforge.net/DTD/sodipodi-0.dtd"
   xmlns="http://www.w3.org/2000/svg"
   xmlns:svg="http://www.w3.org/2000/svg"><sodipodi:namedview
     id="namedview1"
     pagecolor="#777777"
     bordercolor="#000000"
     borderopacity="0.25"
     inkscape:showpageshadow="2"
     inkscape:pageopacity="0.0"
     inkscape:pagecheckerboard="0"
     inkscape:deskcolor="#d1d1d1"
     inkscape:document-units="mm"
     inkscape:zoom="0.31559402"
     inkscape:cx="1335.5766"
     inkscape:cy="708.18833"
     inkscape:window-width="1366"
     inkscape:window-height="697"
     inkscape:window-x="-8"
     inkscape:window-y="-8"
     inkscape:window-maximized="1"
     inkscape:current-layer="g4"
     showguides="true"
     showgrid="false" /><defs
     id="defs1" /><g
     inkscape:label="Capa 1"
     inkscape:groupmode="layer"
     id="layer1"
     transform="translate(-157.79604,-176.46272)"><path
       style="fill:#ffffff;fill-opacity:1;stroke-width:0.509839"
       d="m 168.61588,200.25567 -10.81983,-10.7401 0.0376,-6.06477 0.0376,-6.06475 0.50388,-0.46168 0.50387,-0.46166 h 6.05243 6.05243 l 10.79629,10.69039 10.7963,10.69041 0.0151,5.91499 0.0151,5.91498 -0.20452,0.43099 c -0.11252,0.23705 -0.37984,0.53457 -0.59412,0.66114 l -0.38959,0.23014 h -5.99145 -5.99144 z m 21.69774,3.73863 v -4.97802 L 179.97549,188.7512 169.63737,178.48612 h -4.77008 -4.7701 l -0.007,5.02483 -0.007,5.02482 10.29189,10.21375 10.2919,10.21375 4.82248,0.004 4.8225,0.004 z m -10.58495,2.786 c 0.0494,-0.16694 0.78593,-2.44328 1.63664,-5.05856 l 1.54673,-4.75504 h 1.24719 1.24719 l 1.59431,4.88993 c 0.87687,2.68946 1.62418,4.9682 1.66069,5.06384 l 0.0664,0.17389 -1.25159,-0.039 -1.25161,-0.0389 -0.28648,-1.01171 -0.28647,-1.01171 -1.49782,-0.038 -1.49781,-0.038 -0.0918,0.37522 c -0.0504,0.20639 -0.18321,0.69393 -0.29505,1.08344 l -0.20335,0.7082 h -1.21358 -1.21356 z m 5.27228,-4.1143 c -0.0386,-0.12982 -0.23466,-0.85839 -0.43597,-1.61902 -0.2013,-0.76063 -0.37953,-1.36766 -0.39605,-1.34895 -0.045,0.051 -0.86984,2.99906 -0.86984,3.10901 0,0.0523 0.39866,0.0951 0.88591,0.0951 h 0.88591 z m -9.93043,-1.76284 -0.87682,-0.22685 -0.0393,-1.04543 c -0.0448,-1.1885 -0.0924,-1.15407 0.98367,-0.71078 0.49166,0.20253 1.08023,0.33467 1.49937,0.33661 l 0.69001,0.003 0.35543,-0.27959 c 0.80679,-0.63461 0.44546,-1.2695 -1.13621,-1.99644 -3.09819,-1.4239 -3.47064,-4.19966 -0.7292,-5.43446 l 0.66954,-0.30159 1.21406,0.0136 c 0.66773,0.008 1.48722,0.0979 1.82108,0.20076 l 0.60703,0.18716 0.0396,0.97249 c 0.0218,0.53487 0.0197,0.9725 -0.004,0.9725 -0.0243,0 -0.40642,-0.12929 -0.84901,-0.28735 -0.44257,-0.15804 -1.05776,-0.29463 -1.36706,-0.30351 l -0.56238,-0.0161 -0.34817,0.32702 c -0.69905,0.65662 -0.31558,1.1963 1.4299,2.0124 4.62337,2.16163 1.73458,6.90411 -3.3968,5.57644 z m -6.6848,-6.81966 c -0.85094,-0.39625 -1.62315,-1.28165 -1.88406,-2.16023 l -0.19931,-0.67111 v -3.3479 -3.34788 h 1.21405 1.21406 l 0.004,3.60844 0.004,3.60843 0.17533,0.23077 c 0.43585,0.57368 1.48766,0.57692 1.92108,0.005 l 0.17965,-0.23667 0.004,-3.60844 0.004,-3.60843 h 1.21406 1.21405 v 3.35687 3.35689 l -0.23143,0.72368 -0.23143,0.72369 -0.67911,0.67905 c -1.0622,1.06211 -2.55662,1.32371 -3.92409,0.68694 z m -6.26511,-9.12244 v -4.31662 h 1.14661 1.14661 v 4.31662 4.31664 h -1.14661 -1.14661 z"
       id="path4"
       sodipodi:nodetypes="ccccccccccccsscccccccccccccccccsscccsscccccccsscccsssssscscccsccsssccsccssscsscccscccccccsscccccccccsccccccccccc"
       inkscape:label="iusa"
       inkscape:export-filename="..\..\..\Users\migue\OneDrive\Escritorio\svg\iusasvg.svg"
       inkscape:export-xdpi="96"
       inkscape:export-ydpi="96" /></g></svg>
