<?xml version="1.0" encoding="UTF-8" standalone="no"?>
<!-- Created with Inkscape (http://www.inkscape.org/) -->

<svg
   width="131.41891mm"
   height="30.194895mm"
   viewBox="0 0 131.41891 30.194895"
   version="1.1"
   id="svg1"
   xml:space="preserve"
   inkscape:version="1.3 (0e150ed6c4, 2023-07-21)"
   sodipodi:docname="logos.svg"
   inkscape:export-filename="..\..\..\Users\migue\OneDrive\Escritorio\svg\truper.svg"
   inkscape:export-xdpi="96"
   inkscape:export-ydpi="96"
   xmlns:inkscape="http://www.inkscape.org/namespaces/inkscape"
   xmlns:sodipodi="http://sodipodi.sourceforge.net/DTD/sodipodi-0.dtd"
   xmlns="http://www.w3.org/2000/svg"
   xmlns:svg="http://www.w3.org/2000/svg"><sodipodi:namedview
     id="namedview1"
     pagecolor="#777777"
     bordercolor="#000000"
     borderopacity="0.25"
     inkscape:showpageshadow="2"
     inkscape:pageopacity="0.0"
     inkscape:pagecheckerboard="0"
     inkscape:deskcolor="#d1d1d1"
     inkscape:document-units="mm"
     inkscape:zoom="0.31559402"
     inkscape:cx="1335.5766"
     inkscape:cy="708.18833"
     inkscape:window-width="1366"
     inkscape:window-height="697"
     inkscape:window-x="-8"
     inkscape:window-y="-8"
     inkscape:window-maximized="1"
     inkscape:current-layer="g4"
     showguides="true"
     showgrid="false" /><defs
     id="defs1" /><g
     inkscape:label="Capa 1"
     inkscape:groupmode="layer"
     id="layer1"
     transform="translate(-540.28354,-181.06449)"><path
       id="path6-4"
       style="fill:#ffffff;fill-opacity:1;stroke-width:0.512591"
       d="m 540.28355,181.0645 v 6.98431 6.98431 h 3.70245 3.70245 l 0.16577,-0.80078 c 0.0909,-0.44043 0.38811,-1.24884 0.66035,-1.79676 l 0.49456,-0.99599 1.0282,-1.02957 1.02819,-1.02956 1.01724,-0.498 c 4.81798,-2.35963 10.54902,0.34406 11.67247,5.50675 l 0.16989,0.77954 h 3.31131 3.31199 l -0.0493,-4.17031 -0.0493,-4.1703 -0.34799,-0.90558 c -0.89756,-2.33916 -2.61205,-3.93373 -4.98957,-4.63954 l -0.73707,-0.21852 h -12.0458 z m 96.43358,5.00259 c -0.35887,0 -1.3935,0.10127 -2.29887,0.22537 l -1.64608,0.22605 0.10685,7.42888 0.10617,7.42956 0.9364,1.41316 c 0.5471,0.82601 1.56688,1.72497 2.45506,2.16462 l 1.51934,0.75213 h 2.20571 c 2.59962,3.3e-4 4.3491,-0.76227 5.96228,-2.5996 4.858,-5.53294 -0.84369,-14.39385 -7.4782,-11.62178 l -1.21587,0.50828 v -2.96333 -2.96334 z m -55.81418,4.83477 -0.55416,0.21303 c -0.30514,0.11705 -1.17317,0.21303 -1.92898,0.21303 h -1.37479 v 7.23365 7.23366 l 1.096,-0.21921 c 0.6028,-0.12062 1.54976,-0.21919 2.10433,-0.21919 h 1.00833 v -4.18607 c 0,-5.45699 0.66929,-6.99176 2.58109,-5.92187 l 0.57541,0.32264 v 5.07999 5.08 l 1.84129,-0.21577 c 1.01271,-0.11864 2.0528,-0.2818 2.31052,-0.36306 l 0.46854,-0.14796 -0.11784,-5.69855 -0.1185,-5.69856 -0.65213,-0.96243 c -1.23273,-1.81755 -4.81233,-2.14798 -6.47603,-0.598 l -0.7631,0.71103 v -0.92819 z m 84.20077,0.0623 c -2.11959,-0.10419 -4.27996,0.65181 -5.86569,2.2982 l -1.45496,1.51043 -0.38291,1.78443 -0.38292,1.78513 0.38497,1.79403 c 0.43244,2.01641 2.2408,4.31999 3.99153,5.0841 0.57869,0.25257 2.07802,0.46392 3.33186,0.46922 l 2.27969,0.0106 1.79882,-0.83776 c 2.3558,-1.0969 2.48351,-1.38951 1.33303,-3.04965 -1.28014,-1.84722 -1.30828,-1.85713 -2.93045,-1.02955 -0.77053,0.39308 -1.84087,0.71232 -2.37902,0.70967 -2.27691,-0.0119 -1.87108,-0.56684 2.43518,-3.32639 2.36624,-1.51632 4.36054,-2.80029 4.43199,-2.85305 0.0715,-0.0528 -0.3659,-0.72184 -0.97203,-1.48714 -1.42097,-1.79412 -3.4995,-2.75849 -5.61909,-2.86264 z m -53.78383,0.003 c -3.01827,0.13243 -6.04447,1.9496 -7.12198,4.77107 l -0.59527,1.55837 0.20618,1.99474 0.2055,1.99474 0.98299,1.39535 c 0.54051,0.76731 1.6782,1.76169 2.52835,2.21051 l 1.54605,0.81653 h 2.05981 c 2.01641,0 3.68618,-0.49289 4.94917,-1.46112 l 0.63089,-0.48361 -1.26658,-1.6262 -1.26658,-1.62551 -0.94257,0.49182 c -2.69131,1.4041 -5.42019,-0.5293 -4.84023,-3.42913 0.45363,-2.26816 2.64323,-3.31485 4.70461,-2.24887 l 1.06792,0.5528 1.07887,-1.46728 c 1.32113,-1.79646 1.32121,-1.73626 0,-2.51671 -1.18493,-0.69996 -2.55518,-0.98765 -3.92713,-0.9275 z m 45.54459,0.0106 c -1.12779,0 -2.40897,0.49986 -3.13184,1.22273 l -0.58088,0.58088 v -0.87953 -0.88025 l -1.31521,0.17605 c -0.72336,0.0968 -1.67032,0.24804 -2.10433,0.33566 l -0.78913,0.15892 v 7.05417 7.0535 l 1.31522,-0.21715 c 0.72336,-0.11957 1.74921,-0.2186 2.27969,-0.22125 l 0.96448,-0.004 v -3.95522 -3.95522 l 0.5302,-0.75692 c 0.29145,-0.41611 0.94596,-0.80638 1.45426,-0.86723 l 0.92407,-0.11028 0.43087,-1.46796 c 0.23711,-0.80716 0.53271,-1.87248 0.65691,-2.36738 l 0.22607,-0.89941 z m -59.69678,0.001 c -1.18149,-7.3e-4 -2.63212,0.0954 -3.22363,0.21372 l -1.07546,0.2151 -0.37127,1.73101 c -0.46088,2.1488 -0.4635,2.49675 -0.0192,2.22215 1.72861,-1.06834 5.61018,-0.70156 5.61018,0.5302 v 0.72268 l -0.67816,-0.36306 c -2.02796,-1.08534 -5.44595,0.0313 -6.53357,2.13448 l -0.58226,1.12546 0.16509,1.71251 0.1644,1.71183 1.01449,1.07203 c 0.55792,0.58971 1.32946,1.2039 1.71526,1.36453 h 6.8e-4 c 1.08324,0.45101 2.53254,0.38642 3.8689,-0.17194 l 1.21658,-0.50827 v 0.52403 0.52403 l 1.3152,-0.21098 c 0.72336,-0.11625 1.6866,-0.28893 2.14064,-0.38292 l 0.82543,-0.17057 -0.13425,-5.50812 c -0.14654,-6.0111 -0.33587,-6.69765 -2.15297,-7.80563 l -1.11725,-0.68089 z m 27.03988,0.0274 c -1.97238,-0.0176 -3.96318,0.61977 -5.45401,1.96665 l -1.38098,1.2474 -0.55142,1.89883 c -1.1004,3.78523 0.37457,7.21399 3.88877,9.03795 5.18462,2.69096 11.41019,-1.57334 10.97995,-7.52135 l -0.14729,-2.03582 -0.92064,-1.39125 c -1.37264,-2.07421 -3.87847,-3.17978 -6.41438,-3.20241 z m 40.85161,3.82919 c 0.95006,0 0.91434,0.49245 -0.0705,0.97681 -0.43401,0.21345 -1.30206,0.72745 -1.92897,1.14259 -1.11847,0.74065 -1.35606,0.60567 -0.92203,-0.5254 0.26305,-0.68547 1.92832,-1.594 2.92155,-1.594 z m -24.81222,0.34181 c 0.5808,0.0294 1.19052,0.24837 1.78305,0.71447 1.55109,1.22003 1.53641,3.9412 -0.0274,5.12931 -0.93237,0.70837 -3.11979,0.58881 -3.92302,-0.21441 -2.32348,-2.32348 -0.3495,-5.75688 2.16737,-5.62937 z m -17.60805,0.35962 h 1.5529 1.55291 l 0.72678,0.92408 c 0.94773,1.20478 0.92312,2.67995 -0.0623,3.75588 -1.07291,1.17142 -2.32406,1.38867 -3.78876,0.6576 l -1.20903,-0.6028 -0.10618,-1.64744 -0.10618,-1.64743 0.71994,-0.71994 z m -82.35537,1.66662 v 3.97646 3.97644 l 0.21646,0.73639 c 0.86445,2.943 3.16426,4.84901 6.42946,5.32933 v 0.001 c 0.18648,0.0274 5.64804,0.0422 12.1376,0.0342 l 11.7992,-0.0158 0.0363,-3.49216 0.0363,-3.49215 -8.10566,-0.003 -8.10567,-0.003 -0.84803,-0.20003 c -0.46647,-0.11002 -1.29049,-0.42265 -1.83102,-0.69459 l -0.98298,-0.49457 -1.02819,-1.03231 -1.0282,-1.03299 -0.49457,-0.99599 c -0.27223,-0.54791 -0.56941,-1.357 -0.66034,-1.79745 l -0.16578,-0.80077 h -3.70245 z m 56.05119,1.84062 c 1.69432,0 2.48037,2.04155 1.07546,2.79344 -0.89995,0.48164 -1.13006,0.46112 -2.04954,-0.18289 -1.39523,-0.97726 -0.78583,-2.61055 0.97408,-2.61055 z"
       inkscape:label="nacobre"
       inkscape:export-filename="..\..\..\Users\migue\OneDrive\Escritorio\svg\nacobre.svg"
       inkscape:export-xdpi="96"
       inkscape:export-ydpi="96" /></g></svg>
