<?xml version="1.0" encoding="UTF-8" standalone="no"?>
<!-- Created with Inkscape (http://www.inkscape.org/) -->

<svg
   width="122.01761mm"
   height="48.17857mm"
   viewBox="0 0 122.01761 48.17857"
   version="1.1"
   id="svg1"
   xml:space="preserve"
   inkscape:version="1.3 (0e150ed6c4, 2023-07-21)"
   sodipodi:docname="logos.svg"
   inkscape:export-filename="..\..\..\Users\migue\OneDrive\Escritorio\svg\truper.svg"
   inkscape:export-xdpi="96"
   inkscape:export-ydpi="96"
   xmlns:inkscape="http://www.inkscape.org/namespaces/inkscape"
   xmlns:sodipodi="http://sodipodi.sourceforge.net/DTD/sodipodi-0.dtd"
   xmlns="http://www.w3.org/2000/svg"
   xmlns:svg="http://www.w3.org/2000/svg"><sodipodi:namedview
     id="namedview1"
     pagecolor="#777777"
     bordercolor="#000000"
     borderopacity="0.25"
     inkscape:showpageshadow="2"
     inkscape:pageopacity="0.0"
     inkscape:pagecheckerboard="0"
     inkscape:deskcolor="#d1d1d1"
     inkscape:document-units="mm"
     inkscape:zoom="0.31559402"
     inkscape:cx="1335.5766"
     inkscape:cy="708.18833"
     inkscape:window-width="1366"
     inkscape:window-height="697"
     inkscape:window-x="-8"
     inkscape:window-y="-8"
     inkscape:window-maximized="1"
     inkscape:current-layer="g4"
     showguides="true"
     showgrid="false" /><defs
     id="defs1" /><g
     inkscape:label="Capa 1"
     inkscape:groupmode="layer"
     id="layer1"
     transform="translate(-151.91985,-241.85917)"><path
       style="fill:#ffffff;fill-opacity:1;stroke-width:1.74685"
       d="m 151.91986,284.35755 c 0,-15.81425 10.55685,-28.22891 25.75448,-30.28677 6.05629,-0.82006 9.93448,2.21265 6.64101,5.1932 l -0.88207,0.79826 -4.77975,0.13923 -4.77972,0.13922 -3.28249,1.14387 c -7.75065,2.70092 -13.69511,8.70714 -16.38364,16.55391 l -1.02331,2.98659 -0.0545,4.50533 -0.0545,4.50535 -0.57774,9.9e-4 -0.57774,0.001 z m 16.1766,-7.87588 c 0,-5.72114 -0.10603,-10.67906 -0.23562,-11.0176 l -0.23559,-0.61554 5.80128,-1.08795 5.80127,-1.08796 1.33471,0.55286 c 3.27632,1.3571 3.42873,9.24653 0.20257,10.48453 l -0.61633,0.2365 0.85495,1.22837 c 0.47023,0.6756 1.11416,2.52599 1.43095,4.11198 0.31679,1.58596 0.86003,3.11934 1.20718,3.40744 1.14098,0.94692 0.66999,1.25732 -2.40788,1.58693 -3.65279,0.39119 -3.78396,0.2865 -4.39494,-3.50733 -0.50245,-3.11997 -1.02928,-4.13957 -2.1389,-4.13957 h -0.67818 l 0.0927,3.11977 c 0.1408,4.73897 0.0711,5.12702 -1.0497,5.83783 -0.57197,0.36275 -1.92386,0.80179 -3.00424,0.97567 l -1.96428,0.31613 z m 8.76129,-5.96248 0.70477,-1.25566 -0.69163,-0.69161 c -0.38038,-0.3804 -1.11072,-0.58202 -1.62297,-0.44807 l -0.93135,0.24355 0.1761,1.84663 0.1761,1.84662 0.7421,-0.1429 c 0.40817,-0.0786 1.05925,-0.70794 1.44688,-1.39855 z m 9.27978,11.77624 c -0.88108,-0.44447 -1.99631,-1.49122 -2.47832,-2.32611 l -0.87638,-1.518 0.0175,-2.9384 c 0.0507,-8.79527 10.3759,-14.17644 14.43324,-7.52218 l 0.9022,1.47967 -0.009,3.00422 c -0.014,5.19426 -2.71519,9.00273 -7.18139,10.12733 -2.62903,0.66199 -2.92542,0.64311 -4.8079,-0.30653 z m 5.27322,-5.30174 c 1.3737,-1.96123 0.85478,-6.82999 -0.72796,-6.82999 -1.12206,0 -1.78785,1.698 -1.78785,4.55954 0,3.11469 1.17912,4.17884 2.51581,2.27045 z m 33.07268,-6.27758 v -12.04484 l 1.03992,-0.33109 c 0.57197,-0.1821 2.01617,-0.38412 3.20932,-0.44891 1.19317,-0.0648 2.64336,-0.44978 3.22261,-0.85552 6.87242,-4.81363 10.48125,9.55614 3.85994,15.36971 l -1.7546,1.54057 -1.78437,-0.17015 -1.78436,-0.17014 v 3.58351 3.58353 l -1.03994,0.68058 c -0.57195,0.37431 -1.92386,0.82166 -3.00422,0.9941 l -1.9643,0.31352 z m 8.30313,-2.83296 c 0.75537,-1.41142 0.59052,-4.90827 -0.26484,-5.61816 l -0.74331,-0.61688 -0.64326,0.87971 c -0.37477,0.51255 -0.64326,2.00032 -0.64326,3.56453 v 2.68479 h 0.9081 c 0.49946,0 1.12342,-0.4023 1.38657,-0.89399 z m -31.87474,11.06213 -0.92436,-0.92439 v -4.88202 -4.88203 l -1.03994,0.14464 -1.03992,0.14464 -0.14027,-2.18039 -0.14027,-2.18039 1.18017,-0.29621 1.18019,-0.2962 v -1.49594 c 0,-1.87755 1.05355,-2.83262 3.58196,-3.24715 l 1.9643,-0.32203 v 1.94714 1.94717 l 1.41048,-0.2821 1.41048,-0.2821 -0.1394,2.41972 -0.1394,2.41971 -1.03992,0.14761 -1.03991,0.14778 v 3.67416 3.67418 l 1.15547,-0.29002 1.15547,-0.28999 v 2.38463 2.38463 l -1.60282,0.66969 c -2.29187,0.95761 -4.68515,0.85238 -5.7922,-0.25467 z m 10.65564,-1.97211 c -0.62159,-0.31458 -1.55752,-1.29945 -2.07984,-2.18859 l -0.94968,-1.61662 0.0175,-3.00422 0.0175,-3.00422 0.98049,-1.84877 c 1.95754,-3.69098 4.53291,-5.31517 8.42794,-5.31517 h 2.21852 l 1.22704,0.96519 c 7.2979,5.74055 -1.59975,20.19208 -9.85866,16.0124 z m 6.00998,-6.44689 c 0.95741,-3.55556 -0.36052,-6.89567 -2.05303,-5.20314 l -0.74694,0.74693 v 2.89417 c 0,3.11073 0.16456,3.51043 1.44579,3.51043 h 0.82953 z m 22.62041,-8.59066 v -10.05374 l 0.7069,-1.00926 c 0.63122,-0.9012 3.17415,-1.96006 4.7238,-1.96697 l 0.57774,-0.002 v 9.25862 9.2586 l -0.65416,1.56562 c -0.70971,1.69861 -1.53241,2.27926 -3.85218,2.71884 l -1.5021,0.28463 z m 7.82164,6.8771 -1.35102,-1.35102 0.002,-1.76875 c 0.003,-3.13026 2.34407,-5.71293 6.80967,-7.51259 0.82295,-0.33164 1.38262,-0.78684 1.24375,-1.01154 -0.49026,-0.79326 -2.35338,-0.39239 -4.49824,0.96783 l -2.17034,1.3764 v -2.55743 -2.55743 l 2.55984,-1.17193 c 7.11839,-3.25891 9.91924,-0.96786 9.91924,8.11377 0,2.88254 0.19951,5.19493 0.4622,5.35729 0.98652,0.60972 0.35348,1.01252 -2.39427,1.52353 l -2.85644,0.5312 -0.60996,-0.50622 c -0.33549,-0.27843 -0.60997,-0.31761 -0.60997,-0.0872 0,1.98881 -4.69904,2.46115 -6.50619,0.65399 z m 6.48993,-4.62705 c 0.26314,-0.4917 0.47844,-1.42318 0.47844,-2.06993 v -1.17595 l -1.16655,0.53152 c -1.80516,0.82248 -2.14494,3.60835 -0.44008,3.60835 0.35735,0 0.86504,-0.4023 1.12819,-0.89399 z m -101.20299,4.31244 c 0,-9.10904 17.81907,-21.4438 30.97821,-21.4438 h 4.02344 l 1.2178,0.95793 1.2178,0.95792 v 1.51248 c 0,0.92647 -0.35883,1.83723 -0.92614,2.35063 l -0.92617,0.83816 -2.4247,-0.18854 c -1.3336,-0.10376 -4.60857,-0.17966 -7.27769,-0.16874 l -4.85299,0.0197 -2.54204,0.84577 c -6.83692,2.27475 -12.00593,6.09769 -15.75314,11.6508 -2.40666,3.56651 -2.73438,3.88626 -2.73438,2.66776 z m 108.72981,-1.8758 c -0.5149,-0.20777 -0.9033,-5.70236 -0.40308,-5.70236 0.0961,0 0.95753,0.32711 1.91439,0.72692 1.92584,0.80465 3.67086,0.58744 4.09173,-0.50934 0.29341,-0.76465 0.18032,-0.8286 -2.82683,-1.59831 l -1.96121,-0.502 -0.73728,-1.42573 c -2.10183,-4.06452 2.86578,-9.03434 8.61978,-8.62357 l 2.04838,0.14621 0.13852,2.65758 c 0.0762,1.46168 0.0552,2.65758 -0.0466,2.65758 -0.10184,0 -0.82544,-0.22318 -1.60798,-0.49597 l -1.42276,-0.49598 -0.97009,0.51916 c -1.28492,0.68767 -0.88204,1.2113 1.19072,1.54766 0.93233,0.15128 2.1853,0.73555 2.78435,1.29833 l 1.08919,1.02326 v 1.85514 c 0,2.433 -1.49104,4.5733 -4.22225,6.06072 l -2.14239,1.16676 -2.47948,-0.0365 c -1.36372,-0.0201 -2.73947,-0.14132 -3.05722,-0.26961 z M 159.77707,255.10935 c 0,-3.96925 10.8503,-12.38481 16.75344,-12.99407 l 2.48139,-0.25611 0.78182,0.78182 c 2.07565,2.07565 0.54212,3.84561 -4.08963,4.72019 -4.59008,0.86669 -9.37335,3.06811 -12.73849,5.86265 -2.46696,2.04864 -3.18853,2.47535 -3.18853,1.88552 z"
       id="path10"
       sodipodi:nodetypes="ssscccsscccccssscccsscsssssscssscsccsscccsscssccsccsssssssccsssscccccssccsscsscssccccccccccsscccccccccccccccssccscccsscsccsscsscsccsccccsscccccssscccsssscssscsscssssscccsscsscsssscsssscsscssscssscsscsccsscssss"
       inkscape:label="rotoplas"
       inkscape:export-filename="..\..\..\Users\migue\OneDrive\Escritorio\svg\rotoplas.svg"
       inkscape:export-xdpi="96"
       inkscape:export-ydpi="96" /></g></svg>
