<?xml version="1.0" encoding="UTF-8" standalone="no"?>
<!-- Created with Inkscape (http://www.inkscape.org/) -->

<svg
   width="139.69846mm"
   height="16.745634mm"
   viewBox="0 0 139.69846 16.745634"
   version="1.1"
   id="svg1"
   xml:space="preserve"
   inkscape:version="1.3 (0e150ed6c4, 2023-07-21)"
   sodipodi:docname="logos.svg"
   inkscape:export-filename="..\..\..\Users\migue\OneDrive\Escritorio\svg\truper.svg"
   inkscape:export-xdpi="96"
   inkscape:export-ydpi="96"
   xmlns:inkscape="http://www.inkscape.org/namespaces/inkscape"
   xmlns:sodipodi="http://sodipodi.sourceforge.net/DTD/sodipodi-0.dtd"
   xmlns="http://www.w3.org/2000/svg"
   xmlns:svg="http://www.w3.org/2000/svg"><sodipodi:namedview
     id="namedview1"
     pagecolor="#777777"
     bordercolor="#000000"
     borderopacity="0.25"
     inkscape:showpageshadow="2"
     inkscape:pageopacity="0.0"
     inkscape:pagecheckerboard="0"
     inkscape:deskcolor="#d1d1d1"
     inkscape:document-units="mm"
     inkscape:zoom="0.31559402"
     inkscape:cx="1335.5766"
     inkscape:cy="708.18833"
     inkscape:window-width="1366"
     inkscape:window-height="697"
     inkscape:window-x="-8"
     inkscape:window-y="-8"
     inkscape:window-maximized="1"
     inkscape:current-layer="g4"
     showguides="true"
     showgrid="false" /><defs
     id="defs1" /><g
     inkscape:label="Capa 1"
     inkscape:groupmode="layer"
     id="layer1"
     transform="translate(-204.01381,-186.50334)"><path
       id="path1"
       style="fill:#ffffff;fill-opacity:1;stroke-width:0.525278"
       d="m 341.40646,186.50335 c -1.29218,0 -2.32183,1.02414 -2.32183,2.3058 0,1.30795 1.02965,2.33785 2.32183,2.33785 1.30268,0 2.3058,-1.0299 2.3058,-2.33785 0,-1.27641 -1.00312,-2.3058 -2.3058,-2.3058 z m -121.76208,0.30024 c -13.15297,0 -15.63057,5.97018 -15.63057,5.97018 1.06915,-0.71843 4.83126,-2.96984 8.16797,-2.96984 4.71019,0 5.16816,3.68866 5.16816,3.68866 h 4.83123 c -0.0323,-0.84504 1.28433,-3.7052 5.07618,-3.7052 3.79185,0 8.28942,2.98638 8.28942,2.98638 0,0 -2.74942,-5.97018 -15.90239,-5.97018 z m 121.76724,0.16227 c 0.99803,0 1.72806,0.82977 1.72806,1.85931 0,1.01378 -0.7302,1.8278 -1.71772,1.8278 -1.01904,0 -1.75958,-0.81427 -1.75958,-1.84382 0,-1.01377 0.74071,-1.84329 1.74924,-1.84329 z m -18.99419,0.17828 v 16.07344 h 4.27054 v -12.55944 h 4.47518 c 0,0 1.94872,0.58322 1.94872,1.74408 0,2.07484 -1.92236,1.9699 -1.92236,1.9699 h -3.89227 l 7.10189,8.78758 h 4.70101 c 0,0 -4.22317,-5.19471 -4.62763,-5.72523 0.98752,-0.43073 1.71791,-1.11345 2.24844,-1.92237 0.53053,-0.80893 1.439,-2.83171 0.43047,-5.23223 -1.00854,-2.40052 -3.66621,-3.13573 -4.70101,-3.13573 z m -15.71118,0.0264 v 16.07344 h 13.44724 v -3.46129 h -9.09764 v -2.85254 h 7.10138 v -3.41426 h -7.10138 v -2.88355 h 9.09764 v -3.4618 z m -67.83927,0.005 v 3.4246 h 5.17901 v 12.59096 h 4.27054 v -12.591 h 5.20537 v -3.4246 z m 16.70337,0 v 16.07344 h 4.27054 V 190.6897 h 4.4757 c 0,0 1.94872,0.58321 1.94872,1.74408 0,2.06958 -1.92236,1.9699 -1.92236,1.9699 h -3.89279 l 7.10189,8.78758 h 4.70152 c 0,0 -4.22315,-5.1947 -4.62762,-5.72523 0.98753,-0.43073 1.71738,-1.11344 2.24792,-1.92237 0.53053,-0.80892 1.43951,-2.83172 0.43099,-5.23223 -1.00854,-2.40052 -3.66673,-3.13573 -4.70153,-3.13573 z m 17.08733,0 v 11.52488 c 0,0.35718 0.76177,4.54856 7.42229,4.54856 6.20353,0 7.41711,-3.58739 7.41711,-4.57492 V 187.1755 h -4.07107 v 10.79469 c 0,0.37821 -0.55675,2.24793 -3.41426,2.24793 -2.85751,0 -3.15691,-2.12184 -3.15691,-2.12184 V 187.1755 Z m 17.28732,0 v 16.07344 h 4.22299 v -5.33146 h 5.6255 c 2.96783,0 5.36867,-2.40602 5.36867,-5.37383 0,-2.96257 -2.40084,-5.36815 -5.36867,-5.36815 z m 51.4506,0.47284 c -0.37294,0 -0.66175,0.0262 -0.86661,0.0682 v 2.3058 h 0.51986 v -0.92966 h 0.24702 c 0.28891,0 0.42567,0.11581 0.46767,0.36794 0.0683,0.26789 0.10998,0.47772 0.17828,0.56172 h 0.56224 c -0.0525,-0.084 -0.0945,-0.22581 -0.16278,-0.57774 -0.0683,-0.30992 -0.18917,-0.47772 -0.40979,-0.56172 v -0.0264 c 0.27314,-0.084 0.46767,-0.28376 0.46767,-0.53589 0,-0.22062 -0.0999,-0.40456 -0.22066,-0.50436 -0.16809,-0.0998 -0.35742,-0.16795 -0.7829,-0.16795 z m -0.047,0.37827 c 0.33093,0 0.48317,0.14181 0.48317,0.35192 0,0.23638 -0.23097,0.33589 -0.51986,0.33589 h -0.24702 -0.005 v -0.66145 c 0.0578,-0.0105 0.1523,-0.0264 0.28887,-0.0264 z m -47.18059,2.61586 h 4.54908 c 1.06107,0 1.92236,0.86132 1.92236,1.92236 0,1.06106 -0.86129,1.9172 -1.92236,1.9172 h -4.54908 z m -76.81805,5.60224 c 0,0 -0.45797,3.68867 -5.16816,3.68867 -3.33671,0 -7.09882,-2.25194 -8.16797,-2.97036 0,0 2.4776,5.97069 15.63057,5.97069 13.15297,0 15.90239,-5.97069 15.90239,-5.97069 0,0 -4.49757,2.98689 -8.28942,2.98689 -3.79185,0 -5.10849,-2.86015 -5.07618,-3.7052 z"
       inkscape:label="truper"
       inkscape:export-filename="..\..\..\Users\migue\OneDrive\Escritorio\svg\truper.svg"
       inkscape:export-xdpi="96"
       inkscape:export-ydpi="96" /></g></svg>
