<?xml version="1.0" encoding="UTF-8" standalone="no"?>
<!-- Created with Inkscape (http://www.inkscape.org/) -->

<svg
   width="75.050293mm"
   height="14.566505mm"
   viewBox="0 0 75.050293 14.566505"
   version="1.1"
   id="svg1"
   xml:space="preserve"
   inkscape:version="1.3 (0e150ed6c4, 2023-07-21)"
   sodipodi:docname="logos.svg"
   inkscape:export-filename="..\..\..\Users\migue\OneDrive\Escritorio\svg\truper.svg"
   inkscape:export-xdpi="96"
   inkscape:export-ydpi="96"
   xmlns:inkscape="http://www.inkscape.org/namespaces/inkscape"
   xmlns:sodipodi="http://sodipodi.sourceforge.net/DTD/sodipodi-0.dtd"
   xmlns="http://www.w3.org/2000/svg"
   xmlns:svg="http://www.w3.org/2000/svg"><sodipodi:namedview
     id="namedview1"
     pagecolor="#777777"
     bordercolor="#000000"
     borderopacity="0.25"
     inkscape:showpageshadow="2"
     inkscape:pageopacity="0.0"
     inkscape:pagecheckerboard="0"
     inkscape:deskcolor="#d1d1d1"
     inkscape:document-units="mm"
     inkscape:zoom="0.31559402"
     inkscape:cx="996.53346"
     inkscape:cy="838.10207"
     inkscape:window-width="1366"
     inkscape:window-height="697"
     inkscape:window-x="-8"
     inkscape:window-y="-8"
     inkscape:window-maximized="1"
     inkscape:current-layer="layer1"
     showguides="true"
     showgrid="false" /><defs
     id="defs1" /><g
     inkscape:label="Capa 1"
     inkscape:groupmode="layer"
     id="layer1"
     transform="translate(-345.91921,-189.5659)"><g
       id="g4"
       transform="matrix(0.06341102,0,0,0.06341102,346.75376,177.43364)"
       inkscape:label="urrea"
       inkscape:export-filename="..\..\..\Users\migue\OneDrive\Escritorio\svg\urrea.svg"
       inkscape:export-xdpi="96"
       inkscape:export-ydpi="96"
       style="fill:#ffffff;fill-opacity:1"><path
         d="m 153.85094,191.32736 h 38.44435 c 5.89286,0 10.71395,4.82109 10.71395,10.71395 v 167.01217 c 0,16.64327 -15.43402,51.67913 -59.87225,51.67913 H 46.711019 c -44.4383703,0 -59.87225,-35.03586 -59.87225,-51.67913 V 202.04131 c 0,-5.89286 4.8210897,-10.71395 10.7139497,-10.71395 H 35.997069 c 5.89285,0 10.71395,4.82109 10.71395,10.71395 v 154.65683 c 0,7.95772 6.96873,12.35534 13.93776,12.35534 h 68.550451 c 6.96903,0 13.93776,-4.39762 13.93776,-12.35534 V 202.04131 c 0,-5.89286 4.8211,-10.71395 10.71395,-10.71395 z M 1149.2184,378.6967 c 11.6934,0 21.1731,9.47971 21.1731,21.17308 0,11.69351 -9.4797,21.17322 -21.1731,21.17322 -11.6934,0 -21.1731,-9.47971 -21.1731,-21.17322 0,-11.69337 9.4797,-21.17308 21.1731,-21.17308 z m 2.1878,20.88106 c 1.5436,0 2.3375,-1.73535 2.3375,-3.33057 0,-1.19542 0,-3.44922 -2.3375,-3.18896 h -5.9705 v 6.51953 z m -11.1865,-6.51953 v -4.657 h 5.216 5.9705 c 5.7085,0 7.1449,4.56863 7.1449,7.84596 0,2.39011 -0.9222,4.36101 -2.2559,5.72847 l 6e-4,1.5e-4 -0.01,0.006 c -0.058,0.0597 -0.1172,0.11851 -0.1772,0.17586 -0.5801,0.63491 -0.6617,1.39098 -0.3378,2.07706 l 0.017,0.0322 0.017,0.0322 0.018,0.0322 0.017,0.0321 0.017,0.0324 0.017,0.0322 0.018,0.0322 0.017,0.0322 0.017,0.0322 0.017,0.0324 0.017,0.0321 0.017,0.0322 0.017,0.0322 0.017,0.0322 0.017,0.0324 0.017,0.0322 0.017,0.0322 0.017,0.0321 0.017,0.0322 0.017,0.0322 0.017,0.0324 0.017,0.0322 0.017,0.0322 0.017,0.0322 0.017,0.0321 0.018,0.0322 0.017,0.0323 0.017,0.0322 0.017,0.0322 0.017,0.0322 0.017,0.0324 0.017,0.0322 0.017,0.0321 0.017,0.0322 0.017,0.0322 0.017,0.0322 0.017,0.0324 0.017,0.0322 0.017,0.0322 0.017,0.032 0.017,0.0322 0.018,0.0322 0.017,0.0323 0.017,0.0322 0.017,0.0322 0.017,0.0322 0.017,0.032 0.035,0.0645 0.017,0.0322 0.018,0.0322 0.017,0.0322 0.017,0.0324 0.035,0.0643 0.017,0.0322 0.017,0.0322 0.017,0.0324 0.017,0.0322 0.018,0.0322 0.017,0.0321 0.052,0.0967 h -2e-4 l 2.5088,4.64479 h -5.7004 l -3.6221,-6.70612 h -4.6381 v 6.70612 h -5.216 v -6.70612 -4.657 z m 8.9987,-8.47265 c 8.4412,0 15.2844,6.84317 15.2844,15.2842 0,8.44117 -6.8432,15.28434 -15.2844,15.28434 -8.4412,0 -15.2843,-6.84317 -15.2843,-15.28434 0,-8.44103 6.8431,-15.2842 15.2843,-15.2842 z M 516.02122,191.32736 h 89.23772 c 40.79711,-2.9e-4 59.87224,28.38163 59.87224,52.88631 v 48.32283 c 0,20.43597 -13.26947,43.56554 -41.33835,50.68367 l 40.16778,67.18814 c 2.05721,3.44114 2.29527,10.3243 -4.76404,10.3243 -3.65243,0 -5.54746,0 -9.1999,0 -19.9953,0 -21.17749,0 -41.17294,0 -8.29193,0 -14.22346,-9.01889 -16.51799,-13.52797 -10.47913,-20.5936 -20.95855,-41.18765 -31.43782,-61.78169 h -44.8467 v 64.24458 c 0,6.08592 -4.9793,11.06508 -11.06522,11.06508 h -37.7421 c -6.08577,0 -11.06507,-4.97916 -11.06507,-11.06508 V 202.04131 c 0,-5.89286 4.82109,-10.71395 10.71395,-10.71395 z m 72.51652,101.20914 c 10.75203,0 16.7212,-2.77991 16.7212,-14.00805 v -20.30673 c 0,-11.228 -5.96917,-14.00805 -16.7212,-14.00805 h -72.51652 v 48.32283 z m 475.77676,128.19611 h 38.4444 c 5.8928,0 10.7139,-4.8211 10.7139,-10.71395 V 243.00648 c 0,-16.64327 -15.434,-51.67912 -59.8722,-51.67912 h -96.42597 c -44.4384,0 -59.8724,35.03585 -59.8724,51.67912 v 167.01218 c 0,5.89285 4.8212,10.71395 10.7141,10.71395 h 38.4443 c 5.8929,0 10.714,-4.8211 10.714,-10.71395 v -64.59571 h 96.42597 v 64.59571 c 0,5.89285 4.8211,10.71395 10.7139,10.71395 z M 957.17463,291.25829 v -35.89647 c 0,-7.95771 6.9686,-12.35534 13.9376,-12.35534 h 68.55057 c 6.969,0 13.9378,4.39763 13.9378,12.35534 v 35.89647 z M 695.67575,191.32736 h 37.54065 11.61765 118.49758 c 6.455,0 11.7362,5.28118 11.7362,11.73586 v 29.41444 c 0,6.45483 -5.2812,11.73601 -11.7362,11.73601 H 744.83405 v 39.3751 h 86.04419 c 5.38881,0 9.79805,4.40909 9.79805,9.79805 v 24.55687 c 0,5.38896 -4.40924,9.79805 -9.79805,9.79805 h -86.04419 v 40.10456 h 118.49748 c 6.4554,0 11.7363,5.28117 11.7363,11.73601 v 29.41443 c 0,6.45469 -5.2809,11.73587 -11.7363,11.73587 h -129.56256 -17.61739 -20.1247 c -6.08592,0 -11.06508,-4.97916 -11.06508,-11.06508 V 202.04131 c 0,-5.89286 4.8211,-10.71395 10.71395,-10.71395 z m -409.92054,0 h 89.23772 c 40.79711,-2.9e-4 59.87225,28.38163 59.87225,52.88631 v 48.32283 c 0,20.43597 -13.26948,43.56554 -41.33836,50.68367 l 40.16793,67.18814 c 2.05707,3.44114 2.29512,10.3243 -4.76419,10.3243 -3.65243,0 -5.54746,0 -9.19989,0 -19.99531,0 -21.17749,0 -41.1728,0 -8.29208,0 -14.2236,-9.01889 -16.51799,-13.52797 -10.47928,-20.5936 -20.95855,-41.18765 -31.43797,-61.78169 h -44.8467 v 64.24458 c 0,6.08592 -4.9793,11.06508 -11.06522,11.06508 h -37.74195 c -6.08591,0 -11.06522,-4.97916 -11.06522,-11.06508 V 202.04131 c 0,-5.89286 4.82109,-10.71395 10.7141,-10.71395 z m 72.51652,101.20914 c 10.75203,0 16.7212,-2.77991 16.7212,-14.00805 v -20.30673 c 0,-11.228 -5.96917,-14.00805 -16.7212,-14.00805 h -72.51652 v 48.32283 z"
         style="fill:#ffffff;fill-opacity:1;fill-rule:evenodd;stroke-width:1.47038"
         id="path2" /></g></g></svg>
