<?xml version="1.0" encoding="UTF-8" standalone="no"?>
<!-- Created with Inkscape (http://www.inkscape.org/) -->

<svg
   width="118.3234mm"
   height="118.33682mm"
   viewBox="0 0 118.3234 118.33682"
   version="1.1"
   id="svg1"
   xml:space="preserve"
   xmlns:inkscape="http://www.inkscape.org/namespaces/inkscape"
   xmlns:sodipodi="http://sodipodi.sourceforge.net/DTD/sodipodi-0.dtd"
   xmlns="http://www.w3.org/2000/svg"
   xmlns:svg="http://www.w3.org/2000/svg"><sodipodi:namedview
     id="namedview1"
     pagecolor="#ffffff"
     bordercolor="#000000"
     borderopacity="0.25"
     inkscape:showpageshadow="2"
     inkscape:pageopacity="0.0"
     inkscape:pagecheckerboard="0"
     inkscape:deskcolor="#d1d1d1"
     inkscape:document-units="mm" /><defs
     id="defs1" /><g
     inkscape:label="Capa 1"
     inkscape:groupmode="layer"
     id="layer1"
     transform="translate(-240.20957,22.110795)"><path
       style="fill:#fcfcfc;fill-opacity:1;stroke-width:0.636475"
       d="m 250.63245,96.192549 c -5.01787,-0.63415 -9.0632,-4.28887 -10.20367,-9.21842 -0.21145,-0.91394 -0.21922,-2.68346 -0.21922,-49.923223 0,-47.239774 0.008,-49.009289 0.21922,-49.923239 1.04108,-4.499927 4.51932,-7.978165 9.01925,-9.019245 0.91394,-0.211447 2.68346,-0.219217 49.92323,-0.219217 47.23977,0 49.00929,0.0078 49.92324,0.219217 4.49992,1.04108 7.97816,4.519318 9.01925,9.019245 0.21144,0.91395 0.21921,2.683465 0.21921,49.923239 0,47.239763 -0.008,49.009283 -0.21921,49.923223 -1.02167,4.41604 -4.2938,7.76146 -8.78236,8.97909 l -0.94754,0.25704 -48.79805,0.0136 c -26.83892,0.008 -48.95793,-0.007 -49.15335,-0.0313 z m 97.32375,-5.97371 c 2.21967,-0.46288 4.12012,-2.36333 4.583,-4.583 0.18625,-0.89313 0.18625,-96.276743 0,-97.169871 -0.46288,-2.219668 -2.36333,-4.120121 -4.583,-4.583004 -0.89313,-0.186251 -96.27675,-0.186251 -97.16987,0 -2.21967,0.462883 -4.12012,2.363336 -4.58301,4.583004 -0.18625,0.893128 -0.18625,96.276741 0,97.169871 0.44991,2.15744 2.26149,4.02431 4.41111,4.54573 0.83287,0.20202 96.3763,0.23861 97.34177,0.0373 z m -46.33455,-10.05298 v -3.20006 l 17.44057,-6.4e-4 c 12.4097,-4.7e-4 17.57711,-0.0386 17.91394,-0.13208 0.61798,-0.17156 1.4135,-0.96708 1.58506,-1.58506 0.0832,-0.29972 0.13166,-1.82322 0.13207,-4.15318 6.4e-4,-4.33891 -0.0491,-4.6346 -0.9304,-5.51591 -0.99278,-0.99278 0.0815,-0.93082 -16.17567,-0.93281 -15.7726,-0.002 -15.04116,0.0302 -16.63875,-0.73216 -1.56399,-0.74639 -2.80031,-2.44604 -3.08462,-4.24064 -0.0731,-0.46175 -0.12233,-3.4738 -0.12286,-7.52579 -0.001,-7.395129 5.6e-4,-7.414281 0.70928,-8.818249 0.51372,-1.017666 1.44745,-1.898834 2.62954,-2.481508 1.78869,-0.881683 0.50393,-0.831453 21.3258,-0.833744 l 18.6842,-0.0019 v 3.197924 3.19793 H 327.663 c -12.88265,0 -17.54645,0.03583 -17.88562,0.137459 -0.64134,0.192152 -1.35005,0.837162 -1.57925,1.437301 -0.16708,0.437468 -0.18847,1.012803 -0.15738,4.233047 l 0.036,3.72676 0.35533,0.6423 c 0.19543,0.35326 0.56392,0.79351 0.81886,0.97831 0.99104,0.7184 0.31099,0.68901 15.94321,0.68901 13.8507,0 14.31924,0.007 15.2071,0.2343 0.50385,0.12886 1.18449,0.38037 1.51253,0.55891 0.83786,0.45602 1.8048,1.46688 2.2307,2.332 0.77148,1.56709 0.74999,1.31636 0.79644,9.2935 0.0293,5.0386 0.002,7.46146 -0.0897,7.90238 -0.43235,2.08257 -2.07764,3.66892 -4.61944,4.45396 l -0.88638,0.27376 -18.86186,0.0325 -18.86188,0.0326 z m -42.35432,2.7247 c -3.64854,-0.73634 -5.86857,-2.69418 -6.49525,-5.72811 -0.16348,-0.79145 -0.18534,-3.04965 -0.18534,-19.14235 V 39.775063 h 3.19793 3.19793 v 16.974906 c 0,19.3054 -0.0798,17.78264 0.98793,18.85039 1.14904,1.14904 0.10094,1.06473 13.69635,1.10172 8.01785,0.0218 12.09744,-0.008 12.5033,-0.0927 0.9398,-0.1951 1.95664,-0.73602 2.50378,-1.3319 0.9259,-1.00841 0.86663,0.26292 0.86663,-18.58675 V 39.893511 h 3.20049 3.2005 l -0.033,18.091988 -0.033,18.09199 -0.27177,0.94753 c -0.88273,3.07771 -2.71412,5.00824 -5.53031,5.82973 -0.65771,0.19185 -1.79144,0.209 -15.21977,0.23027 -13.6592,0.0216 -14.57223,0.0102 -15.58647,-0.19446 z M 301.38477,12.770324 V -8.9045314 h 21.67486 21.67486 v 3.197929 3.19793 H 326.25756 307.78063 V 3.709524 9.927719 h 18.47693 18.47693 v 3.19793 3.19793 h -18.47693 -18.47693 v 5.862871 5.862873 h 18.53615 18.53615 v 3.19793 3.197931 h -21.73407 -21.73409 z m -48.67959,18.420665 v -3.13576 l 4.23429,-3.713427 c 2.32886,-2.042378 7.59212,-6.65996 11.69613,-10.261275 4.10401,-3.601316 10.03027,-8.793828 13.16947,-11.538913 3.13919,-2.74508603 5.71086,-5.0310404 5.71482,-5.0798974 0.004,-0.04886 -7.82774,-0.08883 -17.40376,-0.08883 h -17.41095 v -3.138709 -3.138708 h 21.67485 21.67486 l -0.007,3.168319 -0.007,3.168319 -6.05222,5.3298824 c -3.32872,2.931435 -8.61672,7.595083 -11.75111,10.36366 -3.1344,2.768577 -8.16057,7.207239 -11.16928,9.863688 -3.00871,2.656446 -5.50238,4.881678 -5.54148,4.944949 -0.0459,0.07423 6.06661,0.115037 17.2284,0.115037 h 17.2995 v 3.138713 3.138706 h -21.67467 -21.67485 z"
       id="path1" /></g></svg>
